<?xml version="1.0" encoding="utf-8"?>
<!-- Generator: Adobe Illustrator 25.1.0, SVG Export Plug-In . SVG Version: 6.00 Build 0)  -->
<svg version="1.1" id="OBJECTS" xmlns="http://www.w3.org/2000/svg" xmlns:xlink="http://www.w3.org/1999/xlink" x="0px" y="0px"
	 viewBox="0 0 417.1 106.42" style="enable-background:new 0 0 417.1 106.42; fill:rgba(255,255,255,0.3);" xml:space="preserve">
<g>
	<circle cx="90.17" cy="2.79" r="0.79"/>
	<circle cx="94.17" cy="2.79" r="0.79"/>
	<circle cx="98.17" cy="2.79" r="0.79"/>
	<path d="M102.17,3.58c0.43,0,0.79-0.35,0.79-0.79s-0.35-0.79-0.79-0.79c-0.43,0-0.79,0.35-0.79,0.79S101.73,3.58,102.17,3.58z"/>
	<path d="M106.17,3.58c0.43,0,0.79-0.35,0.79-0.79s-0.35-0.79-0.79-0.79c-0.43,0-0.79,0.35-0.79,0.79S105.73,3.58,106.17,3.58z"/>
	<path d="M110.17,3.58c0.43,0,0.79-0.35,0.79-0.79s-0.35-0.79-0.79-0.79c-0.43,0-0.79,0.35-0.79,0.79S109.73,3.58,110.17,3.58z"/>
	<path d="M114.17,3.58c0.43,0,0.79-0.35,0.79-0.79s-0.35-0.79-0.79-0.79c-0.43,0-0.79,0.35-0.79,0.79S113.73,3.58,114.17,3.58z"/>
	<path d="M118.17,3.58c0.43,0,0.79-0.35,0.79-0.79s-0.35-0.79-0.79-0.79c-0.43,0-0.79,0.35-0.79,0.79S117.73,3.58,118.17,3.58z"/>
	<path d="M122.17,3.58c0.43,0,0.79-0.35,0.79-0.79s-0.35-0.79-0.79-0.79c-0.43,0-0.79,0.35-0.79,0.79S121.73,3.58,122.17,3.58z"/>
	<path d="M126.17,3.58c0.43,0,0.79-0.35,0.79-0.79s-0.35-0.79-0.79-0.79c-0.43,0-0.79,0.35-0.79,0.79S125.73,3.58,126.17,3.58z"/>
	<path d="M130.17,3.58c0.43,0,0.79-0.35,0.79-0.79s-0.35-0.79-0.79-0.79c-0.43,0-0.79,0.35-0.79,0.79S129.73,3.58,130.17,3.58z"/>
	<path d="M134.17,3.58c0.43,0,0.79-0.35,0.79-0.79s-0.35-0.79-0.79-0.79c-0.43,0-0.79,0.35-0.79,0.79S133.73,3.58,134.17,3.58z"/>
	<path d="M138.17,3.58c0.43,0,0.79-0.35,0.79-0.79s-0.35-0.79-0.79-0.79c-0.43,0-0.79,0.35-0.79,0.79S137.73,3.58,138.17,3.58z"/>
	<path d="M142.17,3.58c0.43,0,0.79-0.35,0.79-0.79s-0.35-0.79-0.79-0.79c-0.43,0-0.79,0.35-0.79,0.79S141.73,3.58,142.17,3.58z"/>
	<path d="M146.17,3.58c0.43,0,0.79-0.35,0.79-0.79s-0.35-0.79-0.79-0.79c-0.43,0-0.79,0.35-0.79,0.79S145.73,3.58,146.17,3.58z"/>
	<path d="M150.17,3.58c0.43,0,0.79-0.35,0.79-0.79s-0.35-0.79-0.79-0.79c-0.43,0-0.79,0.35-0.79,0.79S149.73,3.58,150.17,3.58z"/>
	<path d="M154.17,3.58c0.43,0,0.79-0.35,0.79-0.79s-0.35-0.79-0.79-0.79c-0.43,0-0.79,0.35-0.79,0.79S153.73,3.58,154.17,3.58z"/>
	<path d="M158.17,3.58c0.43,0,0.79-0.35,0.79-0.79s-0.35-0.79-0.79-0.79c-0.43,0-0.79,0.35-0.79,0.79S157.73,3.58,158.17,3.58z"/>
	<circle cx="90.17" cy="6.79" r="0.79"/>
	<circle cx="94.17" cy="6.79" r="0.79"/>
	<circle cx="98.17" cy="6.79" r="0.79"/>
	<path d="M102.17,7.58c0.43,0,0.79-0.35,0.79-0.79s-0.35-0.79-0.79-0.79c-0.43,0-0.79,0.35-0.79,0.79S101.73,7.58,102.17,7.58z"/>
	<path d="M106.17,7.58c0.43,0,0.79-0.35,0.79-0.79s-0.35-0.79-0.79-0.79c-0.43,0-0.79,0.35-0.79,0.79S105.73,7.58,106.17,7.58z"/>
	<path d="M110.17,7.58c0.43,0,0.79-0.35,0.79-0.79s-0.35-0.79-0.79-0.79c-0.43,0-0.79,0.35-0.79,0.79S109.73,7.58,110.17,7.58z"/>
	<path d="M114.17,7.58c0.43,0,0.79-0.35,0.79-0.79s-0.35-0.79-0.79-0.79c-0.43,0-0.79,0.35-0.79,0.79S113.73,7.58,114.17,7.58z"/>
	<path d="M118.17,7.58c0.43,0,0.79-0.35,0.79-0.79s-0.35-0.79-0.79-0.79c-0.43,0-0.79,0.35-0.79,0.79S117.73,7.58,118.17,7.58z"/>
	<path d="M122.17,7.58c0.43,0,0.79-0.35,0.79-0.79s-0.35-0.79-0.79-0.79c-0.43,0-0.79,0.35-0.79,0.79S121.73,7.58,122.17,7.58z"/>
	<path d="M126.17,7.58c0.43,0,0.79-0.35,0.79-0.79s-0.35-0.79-0.79-0.79c-0.43,0-0.79,0.35-0.79,0.79S125.73,7.58,126.17,7.58z"/>
	<path d="M130.17,7.58c0.43,0,0.79-0.35,0.79-0.79s-0.35-0.79-0.79-0.79c-0.43,0-0.79,0.35-0.79,0.79S129.73,7.58,130.17,7.58z"/>
	<path d="M134.17,7.58c0.43,0,0.79-0.35,0.79-0.79s-0.35-0.79-0.79-0.79c-0.43,0-0.79,0.35-0.79,0.79S133.73,7.58,134.17,7.58z"/>
	<path d="M138.17,7.58c0.43,0,0.79-0.35,0.79-0.79s-0.35-0.79-0.79-0.79c-0.43,0-0.79,0.35-0.79,0.79S137.73,7.58,138.17,7.58z"/>
	<path d="M142.17,7.58c0.43,0,0.79-0.35,0.79-0.79s-0.35-0.79-0.79-0.79c-0.43,0-0.79,0.35-0.79,0.79S141.73,7.58,142.17,7.58z"/>
	<path d="M146.17,7.58c0.43,0,0.79-0.35,0.79-0.79s-0.35-0.79-0.79-0.79c-0.43,0-0.79,0.35-0.79,0.79S145.73,7.58,146.17,7.58z"/>
	<path d="M150.17,7.58c0.43,0,0.79-0.35,0.79-0.79s-0.35-0.79-0.79-0.79c-0.43,0-0.79,0.35-0.79,0.79S149.73,7.58,150.17,7.58z"/>
	<path d="M154.17,7.58c0.43,0,0.79-0.35,0.79-0.79s-0.35-0.79-0.79-0.79c-0.43,0-0.79,0.35-0.79,0.79S153.73,7.58,154.17,7.58z"/>
	<path d="M158.17,7.58c0.43,0,0.79-0.35,0.79-0.79s-0.35-0.79-0.79-0.79c-0.43,0-0.79,0.35-0.79,0.79S157.73,7.58,158.17,7.58z"/>
	<circle cx="74.17" cy="10.79" r="0.79"/>
	<circle cx="78.17" cy="10.79" r="0.79"/>
	<circle cx="82.17" cy="10.79" r="0.79"/>
	<circle cx="86.17" cy="10.79" r="0.79"/>
	<circle cx="90.17" cy="10.79" r="0.79"/>
	<circle cx="94.17" cy="10.79" r="0.79"/>
	<circle cx="98.17" cy="10.79" r="0.79"/>
	<path d="M102.17,11.58c0.43,0,0.79-0.35,0.79-0.79s-0.35-0.79-0.79-0.79c-0.43,0-0.79,0.35-0.79,0.79S101.73,11.58,102.17,11.58z"
		/>
	<path d="M106.17,11.58c0.43,0,0.79-0.35,0.79-0.79s-0.35-0.79-0.79-0.79c-0.43,0-0.79,0.35-0.79,0.79S105.73,11.58,106.17,11.58z"
		/>
	<path d="M110.17,11.58c0.43,0,0.79-0.35,0.79-0.79s-0.35-0.79-0.79-0.79c-0.43,0-0.79,0.35-0.79,0.79S109.73,11.58,110.17,11.58z"
		/>
	<path d="M114.17,11.58c0.43,0,0.79-0.35,0.79-0.79s-0.35-0.79-0.79-0.79c-0.43,0-0.79,0.35-0.79,0.79S113.73,11.58,114.17,11.58z"
		/>
	<path d="M118.17,11.58c0.43,0,0.79-0.35,0.79-0.79s-0.35-0.79-0.79-0.79c-0.43,0-0.79,0.35-0.79,0.79S117.73,11.58,118.17,11.58z"
		/>
	<path d="M122.17,11.58c0.43,0,0.79-0.35,0.79-0.79s-0.35-0.79-0.79-0.79c-0.43,0-0.79,0.35-0.79,0.79S121.73,11.58,122.17,11.58z"
		/>
	<path d="M126.17,11.58c0.43,0,0.79-0.35,0.79-0.79s-0.35-0.79-0.79-0.79c-0.43,0-0.79,0.35-0.79,0.79S125.73,11.58,126.17,11.58z"
		/>
	<path d="M130.17,11.58c0.43,0,0.79-0.35,0.79-0.79s-0.35-0.79-0.79-0.79c-0.43,0-0.79,0.35-0.79,0.79S129.73,11.58,130.17,11.58z"
		/>
	<path d="M134.17,11.58c0.43,0,0.79-0.35,0.79-0.79s-0.35-0.79-0.79-0.79c-0.43,0-0.79,0.35-0.79,0.79S133.73,11.58,134.17,11.58z"
		/>
	<path d="M138.17,11.58c0.43,0,0.79-0.35,0.79-0.79s-0.35-0.79-0.79-0.79c-0.43,0-0.79,0.35-0.79,0.79S137.73,11.58,138.17,11.58z"
		/>
	<path d="M142.17,11.58c0.43,0,0.79-0.35,0.79-0.79s-0.35-0.79-0.79-0.79c-0.43,0-0.79,0.35-0.79,0.79S141.73,11.58,142.17,11.58z"
		/>
	<path d="M146.17,11.58c0.43,0,0.79-0.35,0.79-0.79s-0.35-0.79-0.79-0.79c-0.43,0-0.79,0.35-0.79,0.79S145.73,11.58,146.17,11.58z"
		/>
	<path d="M150.17,11.58c0.43,0,0.79-0.35,0.79-0.79s-0.35-0.79-0.79-0.79c-0.43,0-0.79,0.35-0.79,0.79S149.73,11.58,150.17,11.58z"
		/>
	<path d="M154.17,11.58c0.43,0,0.79-0.35,0.79-0.79s-0.35-0.79-0.79-0.79c-0.43,0-0.79,0.35-0.79,0.79S153.73,11.58,154.17,11.58z"
		/>
	<path d="M158.17,11.58c0.43,0,0.79-0.35,0.79-0.79s-0.35-0.79-0.79-0.79c-0.43,0-0.79,0.35-0.79,0.79S157.73,11.58,158.17,11.58z"
		/>
	<path d="M162.17,11.58c0.43,0,0.79-0.35,0.79-0.79s-0.35-0.79-0.79-0.79c-0.43,0-0.79,0.35-0.79,0.79S161.73,11.58,162.17,11.58z"
		/>
	<path d="M166.17,11.58c0.43,0,0.79-0.35,0.79-0.79s-0.35-0.79-0.79-0.79c-0.43,0-0.79,0.35-0.79,0.79S165.73,11.58,166.17,11.58z"
		/>
	<path d="M170.17,11.58c0.43,0,0.79-0.35,0.79-0.79s-0.35-0.79-0.79-0.79c-0.43,0-0.79,0.35-0.79,0.79S169.73,11.58,170.17,11.58z"
		/>
	<circle cx="62.17" cy="14.79" r="0.79"/>
	<circle cx="66.17" cy="14.79" r="0.79"/>
	<circle cx="70.17" cy="14.79" r="0.79"/>
	<circle cx="74.17" cy="14.79" r="0.79"/>
	<circle cx="78.17" cy="14.79" r="0.79"/>
	<circle cx="82.17" cy="14.79" r="0.79"/>
	<circle cx="86.17" cy="14.79" r="0.79"/>
	<circle cx="90.17" cy="14.79" r="0.79"/>
	<circle cx="94.17" cy="14.79" r="0.79"/>
	<circle cx="98.17" cy="14.79" r="0.79"/>
	<path d="M102.17,15.58c0.43,0,0.79-0.35,0.79-0.79s-0.35-0.79-0.79-0.79c-0.43,0-0.79,0.35-0.79,0.79S101.73,15.58,102.17,15.58z"
		/>
	<path d="M106.17,15.58c0.43,0,0.79-0.35,0.79-0.79s-0.35-0.79-0.79-0.79c-0.43,0-0.79,0.35-0.79,0.79S105.73,15.58,106.17,15.58z"
		/>
	<path d="M110.17,15.58c0.43,0,0.79-0.35,0.79-0.79s-0.35-0.79-0.79-0.79c-0.43,0-0.79,0.35-0.79,0.79S109.73,15.58,110.17,15.58z"
		/>
	<path d="M114.17,15.58c0.43,0,0.79-0.35,0.79-0.79s-0.35-0.79-0.79-0.79c-0.43,0-0.79,0.35-0.79,0.79S113.73,15.58,114.17,15.58z"
		/>
	<path d="M118.17,15.58c0.43,0,0.79-0.35,0.79-0.79s-0.35-0.79-0.79-0.79c-0.43,0-0.79,0.35-0.79,0.79S117.73,15.58,118.17,15.58z"
		/>
	<path d="M122.17,15.58c0.43,0,0.79-0.35,0.79-0.79s-0.35-0.79-0.79-0.79c-0.43,0-0.79,0.35-0.79,0.79S121.73,15.58,122.17,15.58z"
		/>
	<path d="M126.17,15.58c0.43,0,0.79-0.35,0.79-0.79s-0.35-0.79-0.79-0.79c-0.43,0-0.79,0.35-0.79,0.79S125.73,15.58,126.17,15.58z"
		/>
	<path d="M130.17,15.58c0.43,0,0.79-0.35,0.79-0.79s-0.35-0.79-0.79-0.79c-0.43,0-0.79,0.35-0.79,0.79S129.73,15.58,130.17,15.58z"
		/>
	<path d="M134.17,15.58c0.43,0,0.79-0.35,0.79-0.79s-0.35-0.79-0.79-0.79c-0.43,0-0.79,0.35-0.79,0.79S133.73,15.58,134.17,15.58z"
		/>
	<path d="M138.17,15.58c0.43,0,0.79-0.35,0.79-0.79s-0.35-0.79-0.79-0.79c-0.43,0-0.79,0.35-0.79,0.79S137.73,15.58,138.17,15.58z"
		/>
	<path d="M142.17,15.58c0.43,0,0.79-0.35,0.79-0.79s-0.35-0.79-0.79-0.79c-0.43,0-0.79,0.35-0.79,0.79S141.73,15.58,142.17,15.58z"
		/>
	<path d="M146.17,15.58c0.43,0,0.79-0.35,0.79-0.79s-0.35-0.79-0.79-0.79c-0.43,0-0.79,0.35-0.79,0.79S145.73,15.58,146.17,15.58z"
		/>
	<path d="M150.17,15.58c0.43,0,0.79-0.35,0.79-0.79s-0.35-0.79-0.79-0.79c-0.43,0-0.79,0.35-0.79,0.79S149.73,15.58,150.17,15.58z"
		/>
	<path d="M154.17,15.58c0.43,0,0.79-0.35,0.79-0.79s-0.35-0.79-0.79-0.79c-0.43,0-0.79,0.35-0.79,0.79S153.73,15.58,154.17,15.58z"
		/>
	<path d="M158.17,15.58c0.43,0,0.79-0.35,0.79-0.79s-0.35-0.79-0.79-0.79c-0.43,0-0.79,0.35-0.79,0.79S157.73,15.58,158.17,15.58z"
		/>
	<path d="M162.17,15.58c0.43,0,0.79-0.35,0.79-0.79s-0.35-0.79-0.79-0.79c-0.43,0-0.79,0.35-0.79,0.79S161.73,15.58,162.17,15.58z"
		/>
	<path d="M166.17,15.58c0.43,0,0.79-0.35,0.79-0.79s-0.35-0.79-0.79-0.79c-0.43,0-0.79,0.35-0.79,0.79S165.73,15.58,166.17,15.58z"
		/>
	<path d="M170.17,15.58c0.43,0,0.79-0.35,0.79-0.79s-0.35-0.79-0.79-0.79c-0.43,0-0.79,0.35-0.79,0.79S169.73,15.58,170.17,15.58z"
		/>
	<path d="M174.17,15.58c0.43,0,0.79-0.35,0.79-0.79s-0.35-0.79-0.79-0.79c-0.43,0-0.79,0.35-0.79,0.79S173.73,15.58,174.17,15.58z"
		/>
	<path d="M178.17,15.58c0.43,0,0.79-0.35,0.79-0.79s-0.35-0.79-0.79-0.79c-0.43,0-0.79,0.35-0.79,0.79S177.73,15.58,178.17,15.58z"
		/>
	<path d="M182.17,15.58c0.43,0,0.79-0.35,0.79-0.79s-0.35-0.79-0.79-0.79c-0.43,0-0.79,0.35-0.79,0.79S181.73,15.58,182.17,15.58z"
		/>
	<path d="M186.17,15.58c0.43,0,0.79-0.35,0.79-0.79s-0.35-0.79-0.79-0.79c-0.43,0-0.79,0.35-0.79,0.79S185.73,15.58,186.17,15.58z"
		/>
	<circle cx="54.17" cy="18.79" r="0.79"/>
	<circle cx="58.17" cy="18.79" r="0.79"/>
	<circle cx="62.17" cy="18.79" r="0.79"/>
	<circle cx="66.17" cy="18.79" r="0.79"/>
	<circle cx="70.17" cy="18.79" r="0.79"/>
	<circle cx="74.17" cy="18.79" r="0.79"/>
	<circle cx="78.17" cy="18.79" r="0.79"/>
	<circle cx="82.17" cy="18.79" r="0.79"/>
	<circle cx="86.17" cy="18.79" r="0.79"/>
	<circle cx="90.17" cy="18.79" r="0.79"/>
	<circle cx="94.17" cy="18.79" r="0.79"/>
	<circle cx="98.17" cy="18.79" r="0.79"/>
	<path d="M102.17,19.58c0.43,0,0.79-0.35,0.79-0.79s-0.35-0.79-0.79-0.79c-0.43,0-0.79,0.35-0.79,0.79S101.73,19.58,102.17,19.58z"
		/>
	<path d="M106.17,19.58c0.43,0,0.79-0.35,0.79-0.79s-0.35-0.79-0.79-0.79c-0.43,0-0.79,0.35-0.79,0.79S105.73,19.58,106.17,19.58z"
		/>
	<path d="M110.17,19.58c0.43,0,0.79-0.35,0.79-0.79s-0.35-0.79-0.79-0.79c-0.43,0-0.79,0.35-0.79,0.79S109.73,19.58,110.17,19.58z"
		/>
	<path d="M114.17,19.58c0.43,0,0.79-0.35,0.79-0.79s-0.35-0.79-0.79-0.79c-0.43,0-0.79,0.35-0.79,0.79S113.73,19.58,114.17,19.58z"
		/>
	<path d="M118.17,19.58c0.43,0,0.79-0.35,0.79-0.79s-0.35-0.79-0.79-0.79c-0.43,0-0.79,0.35-0.79,0.79S117.73,19.58,118.17,19.58z"
		/>
	<path d="M122.17,19.58c0.43,0,0.79-0.35,0.79-0.79s-0.35-0.79-0.79-0.79c-0.43,0-0.79,0.35-0.79,0.79S121.73,19.58,122.17,19.58z"
		/>
	<path d="M126.17,19.58c0.43,0,0.79-0.35,0.79-0.79s-0.35-0.79-0.79-0.79c-0.43,0-0.79,0.35-0.79,0.79S125.73,19.58,126.17,19.58z"
		/>
	<path d="M130.17,19.58c0.43,0,0.79-0.35,0.79-0.79s-0.35-0.79-0.79-0.79c-0.43,0-0.79,0.35-0.79,0.79S129.73,19.58,130.17,19.58z"
		/>
	<path d="M134.17,19.58c0.43,0,0.79-0.35,0.79-0.79s-0.35-0.79-0.79-0.79c-0.43,0-0.79,0.35-0.79,0.79S133.73,19.58,134.17,19.58z"
		/>
	<path d="M138.17,19.58c0.43,0,0.79-0.35,0.79-0.79s-0.35-0.79-0.79-0.79c-0.43,0-0.79,0.35-0.79,0.79S137.73,19.58,138.17,19.58z"
		/>
	<path d="M142.17,19.58c0.43,0,0.79-0.35,0.79-0.79s-0.35-0.79-0.79-0.79c-0.43,0-0.79,0.35-0.79,0.79S141.73,19.58,142.17,19.58z"
		/>
	<path d="M146.17,19.58c0.43,0,0.79-0.35,0.79-0.79s-0.35-0.79-0.79-0.79c-0.43,0-0.79,0.35-0.79,0.79S145.73,19.58,146.17,19.58z"
		/>
	<path d="M150.17,19.58c0.43,0,0.79-0.35,0.79-0.79s-0.35-0.79-0.79-0.79c-0.43,0-0.79,0.35-0.79,0.79S149.73,19.58,150.17,19.58z"
		/>
	<path d="M154.17,19.58c0.43,0,0.79-0.35,0.79-0.79s-0.35-0.79-0.79-0.79c-0.43,0-0.79,0.35-0.79,0.79S153.73,19.58,154.17,19.58z"
		/>
	<path d="M158.17,19.58c0.43,0,0.79-0.35,0.79-0.79s-0.35-0.79-0.79-0.79c-0.43,0-0.79,0.35-0.79,0.79S157.73,19.58,158.17,19.58z"
		/>
	<path d="M162.17,19.58c0.43,0,0.79-0.35,0.79-0.79s-0.35-0.79-0.79-0.79c-0.43,0-0.79,0.35-0.79,0.79S161.73,19.58,162.17,19.58z"
		/>
	<path d="M166.17,19.58c0.43,0,0.79-0.35,0.79-0.79s-0.35-0.79-0.79-0.79c-0.43,0-0.79,0.35-0.79,0.79S165.73,19.58,166.17,19.58z"
		/>
	<path d="M170.17,19.58c0.43,0,0.79-0.35,0.79-0.79s-0.35-0.79-0.79-0.79c-0.43,0-0.79,0.35-0.79,0.79S169.73,19.58,170.17,19.58z"
		/>
	<path d="M174.17,19.58c0.43,0,0.79-0.35,0.79-0.79s-0.35-0.79-0.79-0.79c-0.43,0-0.79,0.35-0.79,0.79S173.73,19.58,174.17,19.58z"
		/>
	<path d="M178.17,19.58c0.43,0,0.79-0.35,0.79-0.79s-0.35-0.79-0.79-0.79c-0.43,0-0.79,0.35-0.79,0.79S177.73,19.58,178.17,19.58z"
		/>
	<path d="M182.17,19.58c0.43,0,0.79-0.35,0.79-0.79s-0.35-0.79-0.79-0.79c-0.43,0-0.79,0.35-0.79,0.79S181.73,19.58,182.17,19.58z"
		/>
	<path d="M186.17,19.58c0.43,0,0.79-0.35,0.79-0.79s-0.35-0.79-0.79-0.79c-0.43,0-0.79,0.35-0.79,0.79S185.73,19.58,186.17,19.58z"
		/>
	<path d="M190.17,19.58c0.43,0,0.79-0.35,0.79-0.79s-0.35-0.79-0.79-0.79c-0.43,0-0.79,0.35-0.79,0.79S189.73,19.58,190.17,19.58z"
		/>
	<path d="M194.17,19.58c0.43,0,0.79-0.35,0.79-0.79s-0.35-0.79-0.79-0.79c-0.43,0-0.79,0.35-0.79,0.79S193.73,19.58,194.17,19.58z"
		/>
	<circle cx="46.17" cy="22.79" r="0.79"/>
	<circle cx="50.17" cy="22.79" r="0.79"/>
	<circle cx="54.17" cy="22.79" r="0.79"/>
	<circle cx="58.17" cy="22.79" r="0.79"/>
	<circle cx="62.17" cy="22.79" r="0.79"/>
	<circle cx="66.17" cy="22.79" r="0.79"/>
	<circle cx="70.17" cy="22.79" r="0.79"/>
	<circle cx="74.17" cy="22.79" r="0.79"/>
	<circle cx="78.17" cy="22.79" r="0.79"/>
	<circle cx="82.17" cy="22.79" r="0.79"/>
	<circle cx="86.17" cy="22.79" r="0.79"/>
	<circle cx="90.17" cy="22.79" r="0.79"/>
	<circle cx="94.17" cy="22.79" r="0.79"/>
	<circle cx="98.17" cy="22.79" r="0.79"/>
	<path d="M102.17,23.58c0.43,0,0.79-0.35,0.79-0.79s-0.35-0.79-0.79-0.79c-0.43,0-0.79,0.35-0.79,0.79S101.73,23.58,102.17,23.58z"
		/>
	<path d="M106.17,23.58c0.43,0,0.79-0.35,0.79-0.79s-0.35-0.79-0.79-0.79c-0.43,0-0.79,0.35-0.79,0.79S105.73,23.58,106.17,23.58z"
		/>
	<path d="M110.17,23.58c0.43,0,0.79-0.35,0.79-0.79s-0.35-0.79-0.79-0.79c-0.43,0-0.79,0.35-0.79,0.79S109.73,23.58,110.17,23.58z"
		/>
	<path d="M114.17,23.58c0.43,0,0.79-0.35,0.79-0.79s-0.35-0.79-0.79-0.79c-0.43,0-0.79,0.35-0.79,0.79S113.73,23.58,114.17,23.58z"
		/>
	<path d="M118.17,23.58c0.43,0,0.79-0.35,0.79-0.79s-0.35-0.79-0.79-0.79c-0.43,0-0.79,0.35-0.79,0.79S117.73,23.58,118.17,23.58z"
		/>
	<path d="M122.17,23.58c0.43,0,0.79-0.35,0.79-0.79s-0.35-0.79-0.79-0.79c-0.43,0-0.79,0.35-0.79,0.79S121.73,23.58,122.17,23.58z"
		/>
	<path d="M126.17,23.58c0.43,0,0.79-0.35,0.79-0.79s-0.35-0.79-0.79-0.79c-0.43,0-0.79,0.35-0.79,0.79S125.73,23.58,126.17,23.58z"
		/>
	<path d="M130.17,23.58c0.43,0,0.79-0.35,0.79-0.79s-0.35-0.79-0.79-0.79c-0.43,0-0.79,0.35-0.79,0.79S129.73,23.58,130.17,23.58z"
		/>
	<path d="M134.17,23.58c0.43,0,0.79-0.35,0.79-0.79s-0.35-0.79-0.79-0.79c-0.43,0-0.79,0.35-0.79,0.79S133.73,23.58,134.17,23.58z"
		/>
	<path d="M138.17,23.58c0.43,0,0.79-0.35,0.79-0.79s-0.35-0.79-0.79-0.79c-0.43,0-0.79,0.35-0.79,0.79S137.73,23.58,138.17,23.58z"
		/>
	<path d="M142.17,23.58c0.43,0,0.79-0.35,0.79-0.79s-0.35-0.79-0.79-0.79c-0.43,0-0.79,0.35-0.79,0.79S141.73,23.58,142.17,23.58z"
		/>
	<path d="M146.17,23.58c0.43,0,0.79-0.35,0.79-0.79s-0.35-0.79-0.79-0.79c-0.43,0-0.79,0.35-0.79,0.79S145.73,23.58,146.17,23.58z"
		/>
	<path d="M150.17,23.58c0.43,0,0.79-0.35,0.79-0.79s-0.35-0.79-0.79-0.79c-0.43,0-0.79,0.35-0.79,0.79S149.73,23.58,150.17,23.58z"
		/>
	<path d="M154.17,23.58c0.43,0,0.79-0.35,0.79-0.79s-0.35-0.79-0.79-0.79c-0.43,0-0.79,0.35-0.79,0.79S153.73,23.58,154.17,23.58z"
		/>
	<path d="M158.17,23.58c0.43,0,0.79-0.35,0.79-0.79s-0.35-0.79-0.79-0.79c-0.43,0-0.79,0.35-0.79,0.79S157.73,23.58,158.17,23.58z"
		/>
	<path d="M162.17,23.58c0.43,0,0.79-0.35,0.79-0.79s-0.35-0.79-0.79-0.79c-0.43,0-0.79,0.35-0.79,0.79S161.73,23.58,162.17,23.58z"
		/>
	<path d="M166.17,23.58c0.43,0,0.79-0.35,0.79-0.79s-0.35-0.79-0.79-0.79c-0.43,0-0.79,0.35-0.79,0.79S165.73,23.58,166.17,23.58z"
		/>
	<path d="M170.17,23.58c0.43,0,0.79-0.35,0.79-0.79s-0.35-0.79-0.79-0.79c-0.43,0-0.79,0.35-0.79,0.79S169.73,23.58,170.17,23.58z"
		/>
	<path d="M174.17,23.58c0.43,0,0.79-0.35,0.79-0.79s-0.35-0.79-0.79-0.79c-0.43,0-0.79,0.35-0.79,0.79S173.73,23.58,174.17,23.58z"
		/>
	<path d="M178.17,23.58c0.43,0,0.79-0.35,0.79-0.79s-0.35-0.79-0.79-0.79c-0.43,0-0.79,0.35-0.79,0.79S177.73,23.58,178.17,23.58z"
		/>
	<path d="M182.17,23.58c0.43,0,0.79-0.35,0.79-0.79s-0.35-0.79-0.79-0.79c-0.43,0-0.79,0.35-0.79,0.79S181.73,23.58,182.17,23.58z"
		/>
	<path d="M186.17,23.58c0.43,0,0.79-0.35,0.79-0.79s-0.35-0.79-0.79-0.79c-0.43,0-0.79,0.35-0.79,0.79S185.73,23.58,186.17,23.58z"
		/>
	<path d="M190.17,23.58c0.43,0,0.79-0.35,0.79-0.79s-0.35-0.79-0.79-0.79c-0.43,0-0.79,0.35-0.79,0.79S189.73,23.58,190.17,23.58z"
		/>
	<path d="M194.17,23.58c0.43,0,0.79-0.35,0.79-0.79s-0.35-0.79-0.79-0.79c-0.43,0-0.79,0.35-0.79,0.79S193.73,23.58,194.17,23.58z"
		/>
	<path d="M198.17,23.58c0.43,0,0.79-0.35,0.79-0.79s-0.35-0.79-0.79-0.79c-0.43,0-0.79,0.35-0.79,0.79S197.73,23.58,198.17,23.58z"
		/>
	<path d="M202.17,23.58c0.43,0,0.79-0.35,0.79-0.79s-0.35-0.79-0.79-0.79c-0.43,0-0.79,0.35-0.79,0.79S201.73,23.58,202.17,23.58z"
		/>
	<path d="M206.17,23.58c0.43,0,0.79-0.35,0.79-0.79s-0.35-0.79-0.79-0.79c-0.43,0-0.79,0.35-0.79,0.79S205.73,23.58,206.17,23.58z"
		/>
	<circle cx="38.17" cy="26.79" r="0.79"/>
	<circle cx="42.17" cy="26.79" r="0.79"/>
	<circle cx="46.17" cy="26.79" r="0.79"/>
	<circle cx="50.17" cy="26.79" r="0.79"/>
	<circle cx="54.17" cy="26.79" r="0.79"/>
	<circle cx="58.17" cy="26.79" r="0.79"/>
	<circle cx="62.17" cy="26.79" r="0.79"/>
	<circle cx="66.17" cy="26.79" r="0.79"/>
	<circle cx="70.17" cy="26.79" r="0.79"/>
	<circle cx="74.17" cy="26.79" r="0.79"/>
	<circle cx="78.17" cy="26.79" r="0.79"/>
	<circle cx="82.17" cy="26.79" r="0.79"/>
	<circle cx="86.17" cy="26.79" r="0.79"/>
	<circle cx="90.17" cy="26.79" r="0.79"/>
	<circle cx="94.17" cy="26.79" r="0.79"/>
	<circle cx="98.17" cy="26.79" r="0.79"/>
	<path d="M102.17,27.58c0.43,0,0.79-0.35,0.79-0.79s-0.35-0.79-0.79-0.79c-0.43,0-0.79,0.35-0.79,0.79S101.73,27.58,102.17,27.58z"
		/>
	<path d="M106.17,27.58c0.43,0,0.79-0.35,0.79-0.79s-0.35-0.79-0.79-0.79c-0.43,0-0.79,0.35-0.79,0.79S105.73,27.58,106.17,27.58z"
		/>
	<path d="M110.17,27.58c0.43,0,0.79-0.35,0.79-0.79s-0.35-0.79-0.79-0.79c-0.43,0-0.79,0.35-0.79,0.79S109.73,27.58,110.17,27.58z"
		/>
	<path d="M114.17,27.58c0.43,0,0.79-0.35,0.79-0.79s-0.35-0.79-0.79-0.79c-0.43,0-0.79,0.35-0.79,0.79S113.73,27.58,114.17,27.58z"
		/>
	<path d="M118.17,27.58c0.43,0,0.79-0.35,0.79-0.79s-0.35-0.79-0.79-0.79c-0.43,0-0.79,0.35-0.79,0.79S117.73,27.58,118.17,27.58z"
		/>
	<path d="M122.17,27.58c0.43,0,0.79-0.35,0.79-0.79s-0.35-0.79-0.79-0.79c-0.43,0-0.79,0.35-0.79,0.79S121.73,27.58,122.17,27.58z"
		/>
	<path d="M126.17,27.58c0.43,0,0.79-0.35,0.79-0.79s-0.35-0.79-0.79-0.79c-0.43,0-0.79,0.35-0.79,0.79S125.73,27.58,126.17,27.58z"
		/>
	<path d="M130.17,27.58c0.43,0,0.79-0.35,0.79-0.79s-0.35-0.79-0.79-0.79c-0.43,0-0.79,0.35-0.79,0.79S129.73,27.58,130.17,27.58z"
		/>
	<path d="M134.17,27.58c0.43,0,0.79-0.35,0.79-0.79s-0.35-0.79-0.79-0.79c-0.43,0-0.79,0.35-0.79,0.79S133.73,27.58,134.17,27.58z"
		/>
	<path d="M138.17,27.58c0.43,0,0.79-0.35,0.79-0.79s-0.35-0.79-0.79-0.79c-0.43,0-0.79,0.35-0.79,0.79S137.73,27.58,138.17,27.58z"
		/>
	<path d="M142.17,27.58c0.43,0,0.79-0.35,0.79-0.79s-0.35-0.79-0.79-0.79c-0.43,0-0.79,0.35-0.79,0.79S141.73,27.58,142.17,27.58z"
		/>
	<path d="M146.17,27.58c0.43,0,0.79-0.35,0.79-0.79s-0.35-0.79-0.79-0.79c-0.43,0-0.79,0.35-0.79,0.79S145.73,27.58,146.17,27.58z"
		/>
	<path d="M150.17,27.58c0.43,0,0.79-0.35,0.79-0.79s-0.35-0.79-0.79-0.79c-0.43,0-0.79,0.35-0.79,0.79S149.73,27.58,150.17,27.58z"
		/>
	<path d="M154.17,27.58c0.43,0,0.79-0.35,0.79-0.79s-0.35-0.79-0.79-0.79c-0.43,0-0.79,0.35-0.79,0.79S153.73,27.58,154.17,27.58z"
		/>
	<path d="M158.17,27.58c0.43,0,0.79-0.35,0.79-0.79s-0.35-0.79-0.79-0.79c-0.43,0-0.79,0.35-0.79,0.79S157.73,27.58,158.17,27.58z"
		/>
	<path d="M162.17,27.58c0.43,0,0.79-0.35,0.79-0.79s-0.35-0.79-0.79-0.79c-0.43,0-0.79,0.35-0.79,0.79S161.73,27.58,162.17,27.58z"
		/>
	<path d="M166.17,27.58c0.43,0,0.79-0.35,0.79-0.79s-0.35-0.79-0.79-0.79c-0.43,0-0.79,0.35-0.79,0.79S165.73,27.58,166.17,27.58z"
		/>
	<path d="M170.17,27.58c0.43,0,0.79-0.35,0.79-0.79s-0.35-0.79-0.79-0.79c-0.43,0-0.79,0.35-0.79,0.79S169.73,27.58,170.17,27.58z"
		/>
	<path d="M174.17,27.58c0.43,0,0.79-0.35,0.79-0.79s-0.35-0.79-0.79-0.79c-0.43,0-0.79,0.35-0.79,0.79S173.73,27.58,174.17,27.58z"
		/>
	<path d="M178.17,27.58c0.43,0,0.79-0.35,0.79-0.79s-0.35-0.79-0.79-0.79c-0.43,0-0.79,0.35-0.79,0.79S177.73,27.58,178.17,27.58z"
		/>
	<path d="M182.17,27.58c0.43,0,0.79-0.35,0.79-0.79s-0.35-0.79-0.79-0.79c-0.43,0-0.79,0.35-0.79,0.79S181.73,27.58,182.17,27.58z"
		/>
	<path d="M186.17,27.58c0.43,0,0.79-0.35,0.79-0.79s-0.35-0.79-0.79-0.79c-0.43,0-0.79,0.35-0.79,0.79S185.73,27.58,186.17,27.58z"
		/>
	<path d="M190.17,27.58c0.43,0,0.79-0.35,0.79-0.79s-0.35-0.79-0.79-0.79c-0.43,0-0.79,0.35-0.79,0.79S189.73,27.58,190.17,27.58z"
		/>
	<path d="M194.17,27.58c0.43,0,0.79-0.35,0.79-0.79s-0.35-0.79-0.79-0.79c-0.43,0-0.79,0.35-0.79,0.79S193.73,27.58,194.17,27.58z"
		/>
	<path d="M198.17,27.58c0.43,0,0.79-0.35,0.79-0.79s-0.35-0.79-0.79-0.79c-0.43,0-0.79,0.35-0.79,0.79S197.73,27.58,198.17,27.58z"
		/>
	<path d="M202.17,27.58c0.43,0,0.79-0.35,0.79-0.79s-0.35-0.79-0.79-0.79c-0.43,0-0.79,0.35-0.79,0.79S201.73,27.58,202.17,27.58z"
		/>
	<path d="M206.17,27.58c0.43,0,0.79-0.35,0.79-0.79s-0.35-0.79-0.79-0.79c-0.43,0-0.79,0.35-0.79,0.79S205.73,27.58,206.17,27.58z"
		/>
	<path d="M210.17,27.58c0.43,0,0.79-0.35,0.79-0.79s-0.35-0.79-0.79-0.79c-0.43,0-0.79,0.35-0.79,0.79S209.73,27.58,210.17,27.58z"
		/>
	<path d="M214.17,27.58c0.43,0,0.79-0.35,0.79-0.79s-0.35-0.79-0.79-0.79c-0.43,0-0.79,0.35-0.79,0.79S213.73,27.58,214.17,27.58z"
		/>
	<circle cx="30.17" cy="30.79" r="0.79"/>
	<circle cx="34.17" cy="30.79" r="0.79"/>
	<circle cx="38.17" cy="30.79" r="0.79"/>
	<circle cx="42.17" cy="30.79" r="0.79"/>
	<circle cx="46.17" cy="30.79" r="0.79"/>
	<circle cx="50.17" cy="30.79" r="0.79"/>
	<circle cx="54.17" cy="30.79" r="0.79"/>
	<circle cx="58.17" cy="30.79" r="0.79"/>
	<circle cx="62.17" cy="30.79" r="0.79"/>
	<circle cx="66.17" cy="30.79" r="0.79"/>
	<circle cx="70.17" cy="30.79" r="0.79"/>
	<circle cx="74.17" cy="30.79" r="0.79"/>
	<circle cx="78.17" cy="30.79" r="0.79"/>
	<circle cx="82.17" cy="30.79" r="0.79"/>
	<circle cx="86.17" cy="30.79" r="0.79"/>
	<circle cx="90.17" cy="30.79" r="0.79"/>
	<circle cx="94.17" cy="30.79" r="0.79"/>
	<circle cx="98.17" cy="30.79" r="0.79"/>
	<path d="M102.17,31.58c0.43,0,0.79-0.35,0.79-0.79s-0.35-0.79-0.79-0.79c-0.43,0-0.79,0.35-0.79,0.79S101.73,31.58,102.17,31.58z"
		/>
	<path d="M106.17,31.58c0.43,0,0.79-0.35,0.79-0.79s-0.35-0.79-0.79-0.79c-0.43,0-0.79,0.35-0.79,0.79S105.73,31.58,106.17,31.58z"
		/>
	<path d="M110.17,31.58c0.43,0,0.79-0.35,0.79-0.79s-0.35-0.79-0.79-0.79c-0.43,0-0.79,0.35-0.79,0.79S109.73,31.58,110.17,31.58z"
		/>
	<path d="M114.17,31.58c0.43,0,0.79-0.35,0.79-0.79s-0.35-0.79-0.79-0.79c-0.43,0-0.79,0.35-0.79,0.79S113.73,31.58,114.17,31.58z"
		/>
	<path d="M118.17,31.58c0.43,0,0.79-0.35,0.79-0.79s-0.35-0.79-0.79-0.79c-0.43,0-0.79,0.35-0.79,0.79S117.73,31.58,118.17,31.58z"
		/>
	<path d="M122.17,31.58c0.43,0,0.79-0.35,0.79-0.79s-0.35-0.79-0.79-0.79c-0.43,0-0.79,0.35-0.79,0.79S121.73,31.58,122.17,31.58z"
		/>
	<path d="M126.17,31.58c0.43,0,0.79-0.35,0.79-0.79s-0.35-0.79-0.79-0.79c-0.43,0-0.79,0.35-0.79,0.79S125.73,31.58,126.17,31.58z"
		/>
	<path d="M130.17,31.58c0.43,0,0.79-0.35,0.79-0.79s-0.35-0.79-0.79-0.79c-0.43,0-0.79,0.35-0.79,0.79S129.73,31.58,130.17,31.58z"
		/>
	<path d="M134.17,31.58c0.43,0,0.79-0.35,0.79-0.79s-0.35-0.79-0.79-0.79c-0.43,0-0.79,0.35-0.79,0.79S133.73,31.58,134.17,31.58z"
		/>
	<path d="M138.17,31.58c0.43,0,0.79-0.35,0.79-0.79s-0.35-0.79-0.79-0.79c-0.43,0-0.79,0.35-0.79,0.79S137.73,31.58,138.17,31.58z"
		/>
	<path d="M142.17,31.58c0.43,0,0.79-0.35,0.79-0.79s-0.35-0.79-0.79-0.79c-0.43,0-0.79,0.35-0.79,0.79S141.73,31.58,142.17,31.58z"
		/>
	<path d="M146.17,31.58c0.43,0,0.79-0.35,0.79-0.79s-0.35-0.79-0.79-0.79c-0.43,0-0.79,0.35-0.79,0.79S145.73,31.58,146.17,31.58z"
		/>
	<path d="M150.17,31.58c0.43,0,0.79-0.35,0.79-0.79s-0.35-0.79-0.79-0.79c-0.43,0-0.79,0.35-0.79,0.79S149.73,31.58,150.17,31.58z"
		/>
	<path d="M154.17,31.58c0.43,0,0.79-0.35,0.79-0.79s-0.35-0.79-0.79-0.79c-0.43,0-0.79,0.35-0.79,0.79S153.73,31.58,154.17,31.58z"
		/>
	<path d="M158.17,31.58c0.43,0,0.79-0.35,0.79-0.79s-0.35-0.79-0.79-0.79c-0.43,0-0.79,0.35-0.79,0.79S157.73,31.58,158.17,31.58z"
		/>
	<path d="M162.17,31.58c0.43,0,0.79-0.35,0.79-0.79s-0.35-0.79-0.79-0.79c-0.43,0-0.79,0.35-0.79,0.79S161.73,31.58,162.17,31.58z"
		/>
	<path d="M166.17,31.58c0.43,0,0.79-0.35,0.79-0.79s-0.35-0.79-0.79-0.79c-0.43,0-0.79,0.35-0.79,0.79S165.73,31.58,166.17,31.58z"
		/>
	<path d="M170.17,31.58c0.43,0,0.79-0.35,0.79-0.79s-0.35-0.79-0.79-0.79c-0.43,0-0.79,0.35-0.79,0.79S169.73,31.58,170.17,31.58z"
		/>
	<path d="M174.17,31.58c0.43,0,0.79-0.35,0.79-0.79s-0.35-0.79-0.79-0.79c-0.43,0-0.79,0.35-0.79,0.79S173.73,31.58,174.17,31.58z"
		/>
	<path d="M178.17,31.58c0.43,0,0.79-0.35,0.79-0.79s-0.35-0.79-0.79-0.79c-0.43,0-0.79,0.35-0.79,0.79S177.73,31.58,178.17,31.58z"
		/>
	<path d="M182.17,31.58c0.43,0,0.79-0.35,0.79-0.79s-0.35-0.79-0.79-0.79c-0.43,0-0.79,0.35-0.79,0.79S181.73,31.58,182.17,31.58z"
		/>
	<path d="M186.17,31.58c0.43,0,0.79-0.35,0.79-0.79s-0.35-0.79-0.79-0.79c-0.43,0-0.79,0.35-0.79,0.79S185.73,31.58,186.17,31.58z"
		/>
	<path d="M190.17,31.58c0.43,0,0.79-0.35,0.79-0.79s-0.35-0.79-0.79-0.79c-0.43,0-0.79,0.35-0.79,0.79S189.73,31.58,190.17,31.58z"
		/>
	<path d="M194.17,31.58c0.43,0,0.79-0.35,0.79-0.79s-0.35-0.79-0.79-0.79c-0.43,0-0.79,0.35-0.79,0.79S193.73,31.58,194.17,31.58z"
		/>
	<path d="M198.17,31.58c0.43,0,0.79-0.35,0.79-0.79s-0.35-0.79-0.79-0.79c-0.43,0-0.79,0.35-0.79,0.79S197.73,31.58,198.17,31.58z"
		/>
	<path d="M202.17,31.58c0.43,0,0.79-0.35,0.79-0.79s-0.35-0.79-0.79-0.79c-0.43,0-0.79,0.35-0.79,0.79S201.73,31.58,202.17,31.58z"
		/>
	<path d="M206.17,31.58c0.43,0,0.79-0.35,0.79-0.79s-0.35-0.79-0.79-0.79c-0.43,0-0.79,0.35-0.79,0.79S205.73,31.58,206.17,31.58z"
		/>
	<path d="M210.17,31.58c0.43,0,0.79-0.35,0.79-0.79s-0.35-0.79-0.79-0.79c-0.43,0-0.79,0.35-0.79,0.79S209.73,31.58,210.17,31.58z"
		/>
	<path d="M214.17,31.58c0.43,0,0.79-0.35,0.79-0.79s-0.35-0.79-0.79-0.79c-0.43,0-0.79,0.35-0.79,0.79S213.73,31.58,214.17,31.58z"
		/>
	<path d="M218.17,31.58c0.43,0,0.79-0.35,0.79-0.79s-0.35-0.79-0.79-0.79c-0.43,0-0.79,0.35-0.79,0.79S217.73,31.58,218.17,31.58z"
		/>
	<path d="M222.17,31.58c0.43,0,0.79-0.35,0.79-0.79s-0.35-0.79-0.79-0.79c-0.43,0-0.79,0.35-0.79,0.79S221.73,31.58,222.17,31.58z"
		/>
	<circle cx="22.17" cy="34.79" r="0.79"/>
	<circle cx="26.17" cy="34.79" r="0.79"/>
	<circle cx="30.17" cy="34.79" r="0.79"/>
	<circle cx="34.17" cy="34.79" r="0.79"/>
	<circle cx="38.17" cy="34.79" r="0.79"/>
	<circle cx="42.17" cy="34.79" r="0.79"/>
	<circle cx="46.17" cy="34.79" r="0.79"/>
	<circle cx="50.17" cy="34.79" r="0.79"/>
	<circle cx="54.17" cy="34.79" r="0.79"/>
	<circle cx="58.17" cy="34.79" r="0.79"/>
	<circle cx="62.17" cy="34.79" r="0.79"/>
	<circle cx="66.17" cy="34.79" r="0.79"/>
	<circle cx="70.17" cy="34.79" r="0.79"/>
	<circle cx="74.17" cy="34.79" r="0.79"/>
	<circle cx="78.17" cy="34.79" r="0.79"/>
	<circle cx="82.17" cy="34.79" r="0.79"/>
	<circle cx="86.17" cy="34.79" r="0.79"/>
	<circle cx="90.17" cy="34.79" r="0.79"/>
	<circle cx="94.17" cy="34.79" r="0.79"/>
	<circle cx="98.17" cy="34.79" r="0.79"/>
	<path d="M102.17,35.58c0.43,0,0.79-0.35,0.79-0.79c0-0.43-0.35-0.79-0.79-0.79c-0.43,0-0.79,0.35-0.79,0.79
		C101.38,35.23,101.73,35.58,102.17,35.58z"/>
	<path d="M106.17,35.58c0.43,0,0.79-0.35,0.79-0.79c0-0.43-0.35-0.79-0.79-0.79c-0.43,0-0.79,0.35-0.79,0.79
		C105.38,35.23,105.73,35.58,106.17,35.58z"/>
	<path d="M110.17,35.58c0.43,0,0.79-0.35,0.79-0.79c0-0.43-0.35-0.79-0.79-0.79c-0.43,0-0.79,0.35-0.79,0.79
		C109.38,35.23,109.73,35.58,110.17,35.58z"/>
	<path d="M114.17,35.58c0.43,0,0.79-0.35,0.79-0.79c0-0.43-0.35-0.79-0.79-0.79c-0.43,0-0.79,0.35-0.79,0.79
		C113.38,35.23,113.73,35.58,114.17,35.58z"/>
	<path d="M118.17,35.58c0.43,0,0.79-0.35,0.79-0.79c0-0.43-0.35-0.79-0.79-0.79c-0.43,0-0.79,0.35-0.79,0.79
		C117.38,35.23,117.73,35.58,118.17,35.58z"/>
	<path d="M122.17,35.58c0.43,0,0.79-0.35,0.79-0.79c0-0.43-0.35-0.79-0.79-0.79c-0.43,0-0.79,0.35-0.79,0.79
		C121.38,35.23,121.73,35.58,122.17,35.58z"/>
	<path d="M126.17,35.58c0.43,0,0.79-0.35,0.79-0.79c0-0.43-0.35-0.79-0.79-0.79c-0.43,0-0.79,0.35-0.79,0.79
		C125.38,35.23,125.73,35.58,126.17,35.58z"/>
	<path d="M130.17,35.58c0.43,0,0.79-0.35,0.79-0.79c0-0.43-0.35-0.79-0.79-0.79c-0.43,0-0.79,0.35-0.79,0.79
		C129.38,35.23,129.73,35.58,130.17,35.58z"/>
	<path d="M134.17,35.58c0.43,0,0.79-0.35,0.79-0.79c0-0.43-0.35-0.79-0.79-0.79c-0.43,0-0.79,0.35-0.79,0.79
		C133.38,35.23,133.73,35.58,134.17,35.58z"/>
	<path d="M138.17,35.58c0.43,0,0.79-0.35,0.79-0.79c0-0.43-0.35-0.79-0.79-0.79c-0.43,0-0.79,0.35-0.79,0.79
		C137.38,35.23,137.73,35.58,138.17,35.58z"/>
	<path d="M142.17,35.58c0.43,0,0.79-0.35,0.79-0.79c0-0.43-0.35-0.79-0.79-0.79c-0.43,0-0.79,0.35-0.79,0.79
		C141.38,35.23,141.73,35.58,142.17,35.58z"/>
	<path d="M146.17,35.58c0.43,0,0.79-0.35,0.79-0.79c0-0.43-0.35-0.79-0.79-0.79c-0.43,0-0.79,0.35-0.79,0.79
		C145.38,35.23,145.73,35.58,146.17,35.58z"/>
	<path d="M150.17,35.58c0.43,0,0.79-0.35,0.79-0.79c0-0.43-0.35-0.79-0.79-0.79c-0.43,0-0.79,0.35-0.79,0.79
		C149.38,35.23,149.73,35.58,150.17,35.58z"/>
	<path d="M154.17,35.58c0.43,0,0.79-0.35,0.79-0.79c0-0.43-0.35-0.79-0.79-0.79c-0.43,0-0.79,0.35-0.79,0.79
		C153.38,35.23,153.73,35.58,154.17,35.58z"/>
	<path d="M158.17,35.58c0.43,0,0.79-0.35,0.79-0.79c0-0.43-0.35-0.79-0.79-0.79c-0.43,0-0.79,0.35-0.79,0.79
		C157.38,35.23,157.73,35.58,158.17,35.58z"/>
	<path d="M162.17,35.58c0.43,0,0.79-0.35,0.79-0.79c0-0.43-0.35-0.79-0.79-0.79c-0.43,0-0.79,0.35-0.79,0.79
		C161.38,35.23,161.73,35.58,162.17,35.58z"/>
	<path d="M166.17,35.58c0.43,0,0.79-0.35,0.79-0.79c0-0.43-0.35-0.79-0.79-0.79c-0.43,0-0.79,0.35-0.79,0.79
		C165.38,35.23,165.73,35.58,166.17,35.58z"/>
	<path d="M170.17,35.58c0.43,0,0.79-0.35,0.79-0.79c0-0.43-0.35-0.79-0.79-0.79c-0.43,0-0.79,0.35-0.79,0.79
		C169.38,35.23,169.73,35.58,170.17,35.58z"/>
	<path d="M174.17,35.58c0.43,0,0.79-0.35,0.79-0.79c0-0.43-0.35-0.79-0.79-0.79c-0.43,0-0.79,0.35-0.79,0.79
		C173.38,35.23,173.73,35.58,174.17,35.58z"/>
	<path d="M178.17,35.58c0.43,0,0.79-0.35,0.79-0.79c0-0.43-0.35-0.79-0.79-0.79c-0.43,0-0.79,0.35-0.79,0.79
		C177.38,35.23,177.73,35.58,178.17,35.58z"/>
	<path d="M182.17,35.58c0.43,0,0.79-0.35,0.79-0.79c0-0.43-0.35-0.79-0.79-0.79c-0.43,0-0.79,0.35-0.79,0.79
		C181.38,35.23,181.73,35.58,182.17,35.58z"/>
	<path d="M186.17,35.58c0.43,0,0.79-0.35,0.79-0.79c0-0.43-0.35-0.79-0.79-0.79c-0.43,0-0.79,0.35-0.79,0.79
		C185.38,35.23,185.73,35.58,186.17,35.58z"/>
	<path d="M190.17,35.58c0.43,0,0.79-0.35,0.79-0.79c0-0.43-0.35-0.79-0.79-0.79c-0.43,0-0.79,0.35-0.79,0.79
		C189.38,35.23,189.73,35.58,190.17,35.58z"/>
	<path d="M194.17,35.58c0.43,0,0.79-0.35,0.79-0.79c0-0.43-0.35-0.79-0.79-0.79c-0.43,0-0.79,0.35-0.79,0.79
		C193.38,35.23,193.73,35.58,194.17,35.58z"/>
	<path d="M198.17,35.58c0.43,0,0.79-0.35,0.79-0.79c0-0.43-0.35-0.79-0.79-0.79c-0.43,0-0.79,0.35-0.79,0.79
		C197.38,35.23,197.73,35.58,198.17,35.58z"/>
	<path d="M202.17,35.58c0.43,0,0.79-0.35,0.79-0.79c0-0.43-0.35-0.79-0.79-0.79c-0.43,0-0.79,0.35-0.79,0.79
		C201.38,35.23,201.73,35.58,202.17,35.58z"/>
	<path d="M206.17,35.58c0.43,0,0.79-0.35,0.79-0.79c0-0.43-0.35-0.79-0.79-0.79c-0.43,0-0.79,0.35-0.79,0.79
		C205.38,35.23,205.73,35.58,206.17,35.58z"/>
	<path d="M210.17,35.58c0.43,0,0.79-0.35,0.79-0.79c0-0.43-0.35-0.79-0.79-0.79c-0.43,0-0.79,0.35-0.79,0.79
		C209.38,35.23,209.73,35.58,210.17,35.58z"/>
	<path d="M214.17,35.58c0.43,0,0.79-0.35,0.79-0.79c0-0.43-0.35-0.79-0.79-0.79c-0.43,0-0.79,0.35-0.79,0.79
		C213.38,35.23,213.73,35.58,214.17,35.58z"/>
	<path d="M218.17,35.58c0.43,0,0.79-0.35,0.79-0.79c0-0.43-0.35-0.79-0.79-0.79c-0.43,0-0.79,0.35-0.79,0.79
		C217.38,35.23,217.73,35.58,218.17,35.58z"/>
	<path d="M222.17,35.58c0.43,0,0.79-0.35,0.79-0.79c0-0.43-0.35-0.79-0.79-0.79c-0.43,0-0.79,0.35-0.79,0.79
		C221.38,35.23,221.73,35.58,222.17,35.58z"/>
	<path d="M226.17,35.58c0.43,0,0.79-0.35,0.79-0.79c0-0.43-0.35-0.79-0.79-0.79c-0.43,0-0.79,0.35-0.79,0.79
		C225.38,35.23,225.73,35.58,226.17,35.58z"/>
	<path d="M230.17,35.58c0.43,0,0.79-0.35,0.79-0.79c0-0.43-0.35-0.79-0.79-0.79c-0.43,0-0.79,0.35-0.79,0.79
		C229.38,35.23,229.73,35.58,230.17,35.58z"/>
	<circle cx="18.17" cy="38.79" r="0.79"/>
	<circle cx="22.17" cy="38.79" r="0.79"/>
	<circle cx="26.17" cy="38.79" r="0.79"/>
	<circle cx="30.17" cy="38.79" r="0.79"/>
	<circle cx="34.17" cy="38.79" r="0.79"/>
	<circle cx="38.17" cy="38.79" r="0.79"/>
	<circle cx="42.17" cy="38.79" r="0.79"/>
	<circle cx="46.17" cy="38.79" r="0.79"/>
	<circle cx="50.17" cy="38.79" r="0.79"/>
	<circle cx="54.17" cy="38.79" r="0.79"/>
	<circle cx="58.17" cy="38.79" r="0.79"/>
	<circle cx="62.17" cy="38.79" r="0.79"/>
	<circle cx="66.17" cy="38.79" r="0.79"/>
	<circle cx="70.17" cy="38.79" r="0.79"/>
	<circle cx="74.17" cy="38.79" r="0.79"/>
	<circle cx="78.17" cy="38.79" r="0.79"/>
	<circle cx="82.17" cy="38.79" r="0.79"/>
	<circle cx="86.17" cy="38.79" r="0.79"/>
	<circle cx="90.17" cy="38.79" r="0.79"/>
	<circle cx="94.17" cy="38.79" r="0.79"/>
	<circle cx="98.17" cy="38.79" r="0.79"/>
	<path d="M146.17,39.58c0.43,0,0.79-0.35,0.79-0.79c0-0.43-0.35-0.79-0.79-0.79c-0.43,0-0.79,0.35-0.79,0.79
		C145.38,39.23,145.73,39.58,146.17,39.58z"/>
	<path d="M150.17,39.58c0.43,0,0.79-0.35,0.79-0.79c0-0.43-0.35-0.79-0.79-0.79c-0.43,0-0.79,0.35-0.79,0.79
		C149.38,39.23,149.73,39.58,150.17,39.58z"/>
	<path d="M154.17,39.58c0.43,0,0.79-0.35,0.79-0.79c0-0.43-0.35-0.79-0.79-0.79c-0.43,0-0.79,0.35-0.79,0.79
		C153.38,39.23,153.73,39.58,154.17,39.58z"/>
	<path d="M158.17,39.58c0.43,0,0.79-0.35,0.79-0.79c0-0.43-0.35-0.79-0.79-0.79c-0.43,0-0.79,0.35-0.79,0.79
		C157.38,39.23,157.73,39.58,158.17,39.58z"/>
	<path d="M162.17,39.58c0.43,0,0.79-0.35,0.79-0.79c0-0.43-0.35-0.79-0.79-0.79c-0.43,0-0.79,0.35-0.79,0.79
		C161.38,39.23,161.73,39.58,162.17,39.58z"/>
	<path d="M166.17,39.58c0.43,0,0.79-0.35,0.79-0.79c0-0.43-0.35-0.79-0.79-0.79c-0.43,0-0.79,0.35-0.79,0.79
		C165.38,39.23,165.73,39.58,166.17,39.58z"/>
	<path d="M170.17,39.58c0.43,0,0.79-0.35,0.79-0.79c0-0.43-0.35-0.79-0.79-0.79c-0.43,0-0.79,0.35-0.79,0.79
		C169.38,39.23,169.73,39.58,170.17,39.58z"/>
	<path d="M174.17,39.58c0.43,0,0.79-0.35,0.79-0.79c0-0.43-0.35-0.79-0.79-0.79c-0.43,0-0.79,0.35-0.79,0.79
		C173.38,39.23,173.73,39.58,174.17,39.58z"/>
	<path d="M178.17,39.58c0.43,0,0.79-0.35,0.79-0.79c0-0.43-0.35-0.79-0.79-0.79c-0.43,0-0.79,0.35-0.79,0.79
		C177.38,39.23,177.73,39.58,178.17,39.58z"/>
	<path d="M182.17,39.58c0.43,0,0.79-0.35,0.79-0.79c0-0.43-0.35-0.79-0.79-0.79c-0.43,0-0.79,0.35-0.79,0.79
		C181.38,39.23,181.73,39.58,182.17,39.58z"/>
	<path d="M186.17,39.58c0.43,0,0.79-0.35,0.79-0.79c0-0.43-0.35-0.79-0.79-0.79c-0.43,0-0.79,0.35-0.79,0.79
		C185.38,39.23,185.73,39.58,186.17,39.58z"/>
	<path d="M190.17,39.58c0.43,0,0.79-0.35,0.79-0.79c0-0.43-0.35-0.79-0.79-0.79c-0.43,0-0.79,0.35-0.79,0.79
		C189.38,39.23,189.73,39.58,190.17,39.58z"/>
	<path d="M194.17,39.58c0.43,0,0.79-0.35,0.79-0.79c0-0.43-0.35-0.79-0.79-0.79c-0.43,0-0.79,0.35-0.79,0.79
		C193.38,39.23,193.73,39.58,194.17,39.58z"/>
	<path d="M198.17,39.58c0.43,0,0.79-0.35,0.79-0.79c0-0.43-0.35-0.79-0.79-0.79c-0.43,0-0.79,0.35-0.79,0.79
		C197.38,39.23,197.73,39.58,198.17,39.58z"/>
	<path d="M202.17,39.58c0.43,0,0.79-0.35,0.79-0.79c0-0.43-0.35-0.79-0.79-0.79c-0.43,0-0.79,0.35-0.79,0.79
		C201.38,39.23,201.73,39.58,202.17,39.58z"/>
	<path d="M206.17,39.58c0.43,0,0.79-0.35,0.79-0.79c0-0.43-0.35-0.79-0.79-0.79c-0.43,0-0.79,0.35-0.79,0.79
		C205.38,39.23,205.73,39.58,206.17,39.58z"/>
	<path d="M210.17,39.58c0.43,0,0.79-0.35,0.79-0.79c0-0.43-0.35-0.79-0.79-0.79c-0.43,0-0.79,0.35-0.79,0.79
		C209.38,39.23,209.73,39.58,210.17,39.58z"/>
	<path d="M214.17,39.58c0.43,0,0.79-0.35,0.79-0.79c0-0.43-0.35-0.79-0.79-0.79c-0.43,0-0.79,0.35-0.79,0.79
		C213.38,39.23,213.73,39.58,214.17,39.58z"/>
	<path d="M218.17,39.58c0.43,0,0.79-0.35,0.79-0.79c0-0.43-0.35-0.79-0.79-0.79c-0.43,0-0.79,0.35-0.79,0.79
		C217.38,39.23,217.73,39.58,218.17,39.58z"/>
	<path d="M222.17,39.58c0.43,0,0.79-0.35,0.79-0.79c0-0.43-0.35-0.79-0.79-0.79c-0.43,0-0.79,0.35-0.79,0.79
		C221.38,39.23,221.73,39.58,222.17,39.58z"/>
	<path d="M226.17,39.58c0.43,0,0.79-0.35,0.79-0.79c0-0.43-0.35-0.79-0.79-0.79c-0.43,0-0.79,0.35-0.79,0.79
		C225.38,39.23,225.73,39.58,226.17,39.58z"/>
	<path d="M230.17,39.58c0.43,0,0.79-0.35,0.79-0.79c0-0.43-0.35-0.79-0.79-0.79c-0.43,0-0.79,0.35-0.79,0.79
		C229.38,39.23,229.73,39.58,230.17,39.58z"/>
	<path d="M234.17,39.58c0.43,0,0.79-0.35,0.79-0.79c0-0.43-0.35-0.79-0.79-0.79c-0.43,0-0.79,0.35-0.79,0.79
		C233.38,39.23,233.73,39.58,234.17,39.58z"/>
	<path d="M238.17,39.58c0.43,0,0.79-0.35,0.79-0.79c0-0.43-0.35-0.79-0.79-0.79c-0.43,0-0.79,0.35-0.79,0.79
		C237.38,39.23,237.73,39.58,238.17,39.58z"/>
	<circle cx="10.17" cy="42.79" r="0.79"/>
	<circle cx="14.17" cy="42.79" r="0.79"/>
	<circle cx="18.17" cy="42.79" r="0.79"/>
	<circle cx="22.17" cy="42.79" r="0.79"/>
	<circle cx="26.17" cy="42.79" r="0.79"/>
	<circle cx="30.17" cy="42.79" r="0.79"/>
	<circle cx="34.17" cy="42.79" r="0.79"/>
	<circle cx="38.17" cy="42.79" r="0.79"/>
	<circle cx="42.17" cy="42.79" r="0.79"/>
	<circle cx="46.17" cy="42.79" r="0.79"/>
	<circle cx="50.17" cy="42.79" r="0.79"/>
	<circle cx="54.17" cy="42.79" r="0.79"/>
	<circle cx="58.17" cy="42.79" r="0.79"/>
	<circle cx="62.17" cy="42.79" r="0.79"/>
	<circle cx="66.17" cy="42.79" r="0.79"/>
	<circle cx="70.17" cy="42.79" r="0.79"/>
	<circle cx="74.17" cy="42.79" r="0.79"/>
	<circle cx="78.17" cy="42.79" r="0.79"/>
	<circle cx="82.17" cy="42.79" r="0.79"/>
	<path d="M166.17,43.58c0.43,0,0.79-0.35,0.79-0.79c0-0.43-0.35-0.79-0.79-0.79c-0.43,0-0.79,0.35-0.79,0.79
		C165.38,43.23,165.73,43.58,166.17,43.58z"/>
	<path d="M170.17,43.58c0.43,0,0.79-0.35,0.79-0.79c0-0.43-0.35-0.79-0.79-0.79c-0.43,0-0.79,0.35-0.79,0.79
		C169.38,43.23,169.73,43.58,170.17,43.58z"/>
	<path d="M174.17,43.58c0.43,0,0.79-0.35,0.79-0.79c0-0.43-0.35-0.79-0.79-0.79c-0.43,0-0.79,0.35-0.79,0.79
		C173.38,43.23,173.73,43.58,174.17,43.58z"/>
	<path d="M178.17,43.58c0.43,0,0.79-0.35,0.79-0.79c0-0.43-0.35-0.79-0.79-0.79c-0.43,0-0.79,0.35-0.79,0.79
		C177.38,43.23,177.73,43.58,178.17,43.58z"/>
	<path d="M182.17,43.58c0.43,0,0.79-0.35,0.79-0.79c0-0.43-0.35-0.79-0.79-0.79c-0.43,0-0.79,0.35-0.79,0.79
		C181.38,43.23,181.73,43.58,182.17,43.58z"/>
	<path d="M186.17,43.58c0.43,0,0.79-0.35,0.79-0.79c0-0.43-0.35-0.79-0.79-0.79c-0.43,0-0.79,0.35-0.79,0.79
		C185.38,43.23,185.73,43.58,186.17,43.58z"/>
	<path d="M190.17,43.58c0.43,0,0.79-0.35,0.79-0.79c0-0.43-0.35-0.79-0.79-0.79c-0.43,0-0.79,0.35-0.79,0.79
		C189.38,43.23,189.73,43.58,190.17,43.58z"/>
	<path d="M194.17,43.58c0.43,0,0.79-0.35,0.79-0.79c0-0.43-0.35-0.79-0.79-0.79c-0.43,0-0.79,0.35-0.79,0.79
		C193.38,43.23,193.73,43.58,194.17,43.58z"/>
	<path d="M198.17,43.58c0.43,0,0.79-0.35,0.79-0.79c0-0.43-0.35-0.79-0.79-0.79c-0.43,0-0.79,0.35-0.79,0.79
		C197.38,43.23,197.73,43.58,198.17,43.58z"/>
	<path d="M202.17,43.58c0.43,0,0.79-0.35,0.79-0.79c0-0.43-0.35-0.79-0.79-0.79c-0.43,0-0.79,0.35-0.79,0.79
		C201.38,43.23,201.73,43.58,202.17,43.58z"/>
	<path d="M206.17,43.58c0.43,0,0.79-0.35,0.79-0.79c0-0.43-0.35-0.79-0.79-0.79c-0.43,0-0.79,0.35-0.79,0.79
		C205.38,43.23,205.73,43.58,206.17,43.58z"/>
	<path d="M210.17,43.58c0.43,0,0.79-0.35,0.79-0.79c0-0.43-0.35-0.79-0.79-0.79c-0.43,0-0.79,0.35-0.79,0.79
		C209.38,43.23,209.73,43.58,210.17,43.58z"/>
	<path d="M214.17,43.58c0.43,0,0.79-0.35,0.79-0.79c0-0.43-0.35-0.79-0.79-0.79c-0.43,0-0.79,0.35-0.79,0.79
		C213.38,43.23,213.73,43.58,214.17,43.58z"/>
	<path d="M218.17,43.58c0.43,0,0.79-0.35,0.79-0.79c0-0.43-0.35-0.79-0.79-0.79c-0.43,0-0.79,0.35-0.79,0.79
		C217.38,43.23,217.73,43.58,218.17,43.58z"/>
	<path d="M222.17,43.58c0.43,0,0.79-0.35,0.79-0.79c0-0.43-0.35-0.79-0.79-0.79c-0.43,0-0.79,0.35-0.79,0.79
		C221.38,43.23,221.73,43.58,222.17,43.58z"/>
	<path d="M226.17,43.58c0.43,0,0.79-0.35,0.79-0.79c0-0.43-0.35-0.79-0.79-0.79c-0.43,0-0.79,0.35-0.79,0.79
		C225.38,43.23,225.73,43.58,226.17,43.58z"/>
	<path d="M230.17,43.58c0.43,0,0.79-0.35,0.79-0.79c0-0.43-0.35-0.79-0.79-0.79c-0.43,0-0.79,0.35-0.79,0.79
		C229.38,43.23,229.73,43.58,230.17,43.58z"/>
	<path d="M234.17,43.58c0.43,0,0.79-0.35,0.79-0.79c0-0.43-0.35-0.79-0.79-0.79c-0.43,0-0.79,0.35-0.79,0.79
		C233.38,43.23,233.73,43.58,234.17,43.58z"/>
	<path d="M238.17,43.58c0.43,0,0.79-0.35,0.79-0.79c0-0.43-0.35-0.79-0.79-0.79c-0.43,0-0.79,0.35-0.79,0.79
		C237.38,43.23,237.73,43.58,238.17,43.58z"/>
	<path d="M242.17,43.58c0.43,0,0.79-0.35,0.79-0.79c0-0.43-0.35-0.79-0.79-0.79c-0.43,0-0.79,0.35-0.79,0.79
		C241.38,43.23,241.73,43.58,242.17,43.58z"/>
	<path d="M246.17,43.58c0.43,0,0.79-0.35,0.79-0.79c0-0.43-0.35-0.79-0.79-0.79c-0.43,0-0.79,0.35-0.79,0.79
		C245.38,43.23,245.73,43.58,246.17,43.58z"/>
	<path d="M250.17,43.58c0.43,0,0.79-0.35,0.79-0.79c0-0.43-0.35-0.79-0.79-0.79c-0.43,0-0.79,0.35-0.79,0.79
		C249.38,43.23,249.73,43.58,250.17,43.58z"/>
	<circle cx="2.17" cy="46.79" r="0.79"/>
	<circle cx="6.17" cy="46.79" r="0.79"/>
	<circle cx="10.17" cy="46.79" r="0.79"/>
	<circle cx="14.17" cy="46.79" r="0.79"/>
	<circle cx="18.17" cy="46.79" r="0.79"/>
	<circle cx="22.17" cy="46.79" r="0.79"/>
	<circle cx="26.17" cy="46.79" r="0.79"/>
	<circle cx="30.17" cy="46.79" r="0.79"/>
	<circle cx="34.17" cy="46.79" r="0.79"/>
	<circle cx="38.17" cy="46.79" r="0.79"/>
	<circle cx="42.17" cy="46.79" r="0.79"/>
	<circle cx="46.17" cy="46.79" r="0.79"/>
	<circle cx="50.17" cy="46.79" r="0.79"/>
	<circle cx="54.17" cy="46.79" r="0.79"/>
	<circle cx="58.17" cy="46.79" r="0.79"/>
	<circle cx="62.17" cy="46.79" r="0.79"/>
	<circle cx="66.17" cy="46.79" r="0.79"/>
	<circle cx="70.17" cy="46.79" r="0.79"/>
	<path d="M178.17,47.58c0.43,0,0.79-0.35,0.79-0.79c0-0.43-0.35-0.79-0.79-0.79c-0.43,0-0.79,0.35-0.79,0.79
		C177.38,47.23,177.73,47.58,178.17,47.58z"/>
	<path d="M182.17,47.58c0.43,0,0.79-0.35,0.79-0.79c0-0.43-0.35-0.79-0.79-0.79c-0.43,0-0.79,0.35-0.79,0.79
		C181.38,47.23,181.73,47.58,182.17,47.58z"/>
	<path d="M186.17,47.58c0.43,0,0.79-0.35,0.79-0.79c0-0.43-0.35-0.79-0.79-0.79c-0.43,0-0.79,0.35-0.79,0.79
		C185.38,47.23,185.73,47.58,186.17,47.58z"/>
	<path d="M190.17,47.58c0.43,0,0.79-0.35,0.79-0.79c0-0.43-0.35-0.79-0.79-0.79c-0.43,0-0.79,0.35-0.79,0.79
		C189.38,47.23,189.73,47.58,190.17,47.58z"/>
	<path d="M194.17,47.58c0.43,0,0.79-0.35,0.79-0.79c0-0.43-0.35-0.79-0.79-0.79c-0.43,0-0.79,0.35-0.79,0.79
		C193.38,47.23,193.73,47.58,194.17,47.58z"/>
	<path d="M198.17,47.58c0.43,0,0.79-0.35,0.79-0.79c0-0.43-0.35-0.79-0.79-0.79c-0.43,0-0.79,0.35-0.79,0.79
		C197.38,47.23,197.73,47.58,198.17,47.58z"/>
	<path d="M202.17,47.58c0.43,0,0.79-0.35,0.79-0.79c0-0.43-0.35-0.79-0.79-0.79c-0.43,0-0.79,0.35-0.79,0.79
		C201.38,47.23,201.73,47.58,202.17,47.58z"/>
	<path d="M206.17,47.58c0.43,0,0.79-0.35,0.79-0.79c0-0.43-0.35-0.79-0.79-0.79c-0.43,0-0.79,0.35-0.79,0.79
		C205.38,47.23,205.73,47.58,206.17,47.58z"/>
	<path d="M210.17,47.58c0.43,0,0.79-0.35,0.79-0.79c0-0.43-0.35-0.79-0.79-0.79c-0.43,0-0.79,0.35-0.79,0.79
		C209.38,47.23,209.73,47.58,210.17,47.58z"/>
	<path d="M214.17,47.58c0.43,0,0.79-0.35,0.79-0.79c0-0.43-0.35-0.79-0.79-0.79c-0.43,0-0.79,0.35-0.79,0.79
		C213.38,47.23,213.73,47.58,214.17,47.58z"/>
	<path d="M218.17,47.58c0.43,0,0.79-0.35,0.79-0.79c0-0.43-0.35-0.79-0.79-0.79c-0.43,0-0.79,0.35-0.79,0.79
		C217.38,47.23,217.73,47.58,218.17,47.58z"/>
	<path d="M222.17,47.58c0.43,0,0.79-0.35,0.79-0.79c0-0.43-0.35-0.79-0.79-0.79c-0.43,0-0.79,0.35-0.79,0.79
		C221.38,47.23,221.73,47.58,222.17,47.58z"/>
	<path d="M226.17,47.58c0.43,0,0.79-0.35,0.79-0.79c0-0.43-0.35-0.79-0.79-0.79c-0.43,0-0.79,0.35-0.79,0.79
		C225.38,47.23,225.73,47.58,226.17,47.58z"/>
	<path d="M230.17,47.58c0.43,0,0.79-0.35,0.79-0.79c0-0.43-0.35-0.79-0.79-0.79c-0.43,0-0.79,0.35-0.79,0.79
		C229.38,47.23,229.73,47.58,230.17,47.58z"/>
	<path d="M234.17,47.58c0.43,0,0.79-0.35,0.79-0.79c0-0.43-0.35-0.79-0.79-0.79c-0.43,0-0.79,0.35-0.79,0.79
		C233.38,47.23,233.73,47.58,234.17,47.58z"/>
	<path d="M238.17,47.58c0.43,0,0.79-0.35,0.79-0.79c0-0.43-0.35-0.79-0.79-0.79c-0.43,0-0.79,0.35-0.79,0.79
		C237.38,47.23,237.73,47.58,238.17,47.58z"/>
	<path d="M242.17,47.58c0.43,0,0.79-0.35,0.79-0.79c0-0.43-0.35-0.79-0.79-0.79c-0.43,0-0.79,0.35-0.79,0.79
		C241.38,47.23,241.73,47.58,242.17,47.58z"/>
	<path d="M246.17,47.58c0.43,0,0.79-0.35,0.79-0.79c0-0.43-0.35-0.79-0.79-0.79c-0.43,0-0.79,0.35-0.79,0.79
		C245.38,47.23,245.73,47.58,246.17,47.58z"/>
	<path d="M250.17,47.58c0.43,0,0.79-0.35,0.79-0.79c0-0.43-0.35-0.79-0.79-0.79c-0.43,0-0.79,0.35-0.79,0.79
		C249.38,47.23,249.73,47.58,250.17,47.58z"/>
	<path d="M254.17,47.58c0.43,0,0.79-0.35,0.79-0.79c0-0.43-0.35-0.79-0.79-0.79c-0.43,0-0.79,0.35-0.79,0.79
		C253.38,47.23,253.73,47.58,254.17,47.58z"/>
	<path d="M258.17,47.58c0.43,0,0.79-0.35,0.79-0.79c0-0.43-0.35-0.79-0.79-0.79c-0.43,0-0.79,0.35-0.79,0.79
		C257.38,47.23,257.73,47.58,258.17,47.58z"/>
	<path d="M262.17,47.58c0.43,0,0.79-0.35,0.79-0.79c0-0.43-0.35-0.79-0.79-0.79c-0.43,0-0.79,0.35-0.79,0.79
		C261.38,47.23,261.73,47.58,262.17,47.58z"/>
	<path d="M266.17,47.58c0.43,0,0.79-0.35,0.79-0.79c0-0.43-0.35-0.79-0.79-0.79c-0.43,0-0.79,0.35-0.79,0.79
		C265.38,47.23,265.73,47.58,266.17,47.58z"/>
	<circle cx="2.17" cy="50.79" r="0.79"/>
	<circle cx="6.17" cy="50.79" r="0.79"/>
	<circle cx="10.17" cy="50.79" r="0.79"/>
	<circle cx="14.17" cy="50.79" r="0.79"/>
	<circle cx="18.17" cy="50.79" r="0.79"/>
	<circle cx="22.17" cy="50.79" r="0.79"/>
	<circle cx="26.17" cy="50.79" r="0.79"/>
	<circle cx="30.17" cy="50.79" r="0.79"/>
	<circle cx="34.17" cy="50.79" r="0.79"/>
	<circle cx="38.17" cy="50.79" r="0.79"/>
	<circle cx="42.17" cy="50.79" r="0.79"/>
	<circle cx="46.17" cy="50.79" r="0.79"/>
	<circle cx="50.17" cy="50.79" r="0.79"/>
	<circle cx="54.17" cy="50.79" r="0.79"/>
	<circle cx="58.17" cy="50.79" r="0.79"/>
	<path d="M190.17,51.58c0.43,0,0.79-0.35,0.79-0.79c0-0.43-0.35-0.79-0.79-0.79c-0.43,0-0.79,0.35-0.79,0.79
		C189.38,51.23,189.73,51.58,190.17,51.58z"/>
	<path d="M194.17,51.58c0.43,0,0.79-0.35,0.79-0.79c0-0.43-0.35-0.79-0.79-0.79c-0.43,0-0.79,0.35-0.79,0.79
		C193.38,51.23,193.73,51.58,194.17,51.58z"/>
	<path d="M198.17,51.58c0.43,0,0.79-0.35,0.79-0.79c0-0.43-0.35-0.79-0.79-0.79c-0.43,0-0.79,0.35-0.79,0.79
		C197.38,51.23,197.73,51.58,198.17,51.58z"/>
	<path d="M202.17,51.58c0.43,0,0.79-0.35,0.79-0.79c0-0.43-0.35-0.79-0.79-0.79c-0.43,0-0.79,0.35-0.79,0.79
		C201.38,51.23,201.73,51.58,202.17,51.58z"/>
	<path d="M206.17,51.58c0.43,0,0.79-0.35,0.79-0.79c0-0.43-0.35-0.79-0.79-0.79c-0.43,0-0.79,0.35-0.79,0.79
		C205.38,51.23,205.73,51.58,206.17,51.58z"/>
	<path d="M210.17,51.58c0.43,0,0.79-0.35,0.79-0.79c0-0.43-0.35-0.79-0.79-0.79c-0.43,0-0.79,0.35-0.79,0.79
		C209.38,51.23,209.73,51.58,210.17,51.58z"/>
	<path d="M214.17,51.58c0.43,0,0.79-0.35,0.79-0.79c0-0.43-0.35-0.79-0.79-0.79c-0.43,0-0.79,0.35-0.79,0.79
		C213.38,51.23,213.73,51.58,214.17,51.58z"/>
	<path d="M218.17,51.58c0.43,0,0.79-0.35,0.79-0.79c0-0.43-0.35-0.79-0.79-0.79c-0.43,0-0.79,0.35-0.79,0.79
		C217.38,51.23,217.73,51.58,218.17,51.58z"/>
	<path d="M222.17,51.58c0.43,0,0.79-0.35,0.79-0.79c0-0.43-0.35-0.79-0.79-0.79c-0.43,0-0.79,0.35-0.79,0.79
		C221.38,51.23,221.73,51.58,222.17,51.58z"/>
	<path d="M226.17,51.58c0.43,0,0.79-0.35,0.79-0.79c0-0.43-0.35-0.79-0.79-0.79c-0.43,0-0.79,0.35-0.79,0.79
		C225.38,51.23,225.73,51.58,226.17,51.58z"/>
	<path d="M230.17,51.58c0.43,0,0.79-0.35,0.79-0.79c0-0.43-0.35-0.79-0.79-0.79c-0.43,0-0.79,0.35-0.79,0.79
		C229.38,51.23,229.73,51.58,230.17,51.58z"/>
	<path d="M234.17,51.58c0.43,0,0.79-0.35,0.79-0.79c0-0.43-0.35-0.79-0.79-0.79c-0.43,0-0.79,0.35-0.79,0.79
		C233.38,51.23,233.73,51.58,234.17,51.58z"/>
	<path d="M238.17,51.58c0.43,0,0.79-0.35,0.79-0.79c0-0.43-0.35-0.79-0.79-0.79c-0.43,0-0.79,0.35-0.79,0.79
		C237.38,51.23,237.73,51.58,238.17,51.58z"/>
	<path d="M242.17,51.58c0.43,0,0.79-0.35,0.79-0.79c0-0.43-0.35-0.79-0.79-0.79c-0.43,0-0.79,0.35-0.79,0.79
		C241.38,51.23,241.73,51.58,242.17,51.58z"/>
	<path d="M246.17,51.58c0.43,0,0.79-0.35,0.79-0.79c0-0.43-0.35-0.79-0.79-0.79c-0.43,0-0.79,0.35-0.79,0.79
		C245.38,51.23,245.73,51.58,246.17,51.58z"/>
	<path d="M250.17,51.58c0.43,0,0.79-0.35,0.79-0.79c0-0.43-0.35-0.79-0.79-0.79c-0.43,0-0.79,0.35-0.79,0.79
		C249.38,51.23,249.73,51.58,250.17,51.58z"/>
	<path d="M254.17,51.58c0.43,0,0.79-0.35,0.79-0.79c0-0.43-0.35-0.79-0.79-0.79c-0.43,0-0.79,0.35-0.79,0.79
		C253.38,51.23,253.73,51.58,254.17,51.58z"/>
	<path d="M258.17,51.58c0.43,0,0.79-0.35,0.79-0.79c0-0.43-0.35-0.79-0.79-0.79c-0.43,0-0.79,0.35-0.79,0.79
		C257.38,51.23,257.73,51.58,258.17,51.58z"/>
	<path d="M262.17,51.58c0.43,0,0.79-0.35,0.79-0.79c0-0.43-0.35-0.79-0.79-0.79c-0.43,0-0.79,0.35-0.79,0.79
		C261.38,51.23,261.73,51.58,262.17,51.58z"/>
	<path d="M266.17,51.58c0.43,0,0.79-0.35,0.79-0.79c0-0.43-0.35-0.79-0.79-0.79c-0.43,0-0.79,0.35-0.79,0.79
		C265.38,51.23,265.73,51.58,266.17,51.58z"/>
	<path d="M270.17,51.58c0.43,0,0.79-0.35,0.79-0.79c0-0.43-0.35-0.79-0.79-0.79c-0.43,0-0.79,0.35-0.79,0.79
		C269.38,51.23,269.73,51.58,270.17,51.58z"/>
	<path d="M274.17,51.58c0.43,0,0.79-0.35,0.79-0.79c0-0.43-0.35-0.79-0.79-0.79c-0.43,0-0.79,0.35-0.79,0.79
		C273.38,51.23,273.73,51.58,274.17,51.58z"/>
	<path d="M278.17,51.58c0.43,0,0.79-0.35,0.79-0.79c0-0.43-0.35-0.79-0.79-0.79c-0.43,0-0.79,0.35-0.79,0.79
		C277.38,51.23,277.73,51.58,278.17,51.58z"/>
	<path d="M282.17,51.58c0.43,0,0.79-0.35,0.79-0.79c0-0.43-0.35-0.79-0.79-0.79c-0.43,0-0.79,0.35-0.79,0.79
		C281.38,51.23,281.73,51.58,282.17,51.58z"/>
	<path d="M286.17,51.58c0.43,0,0.79-0.35,0.79-0.79c0-0.43-0.35-0.79-0.79-0.79c-0.43,0-0.79,0.35-0.79,0.79
		C285.38,51.23,285.73,51.58,286.17,51.58z"/>
	<path d="M290.17,51.58c0.43,0,0.79-0.35,0.79-0.79c0-0.43-0.35-0.79-0.79-0.79c-0.43,0-0.79,0.35-0.79,0.79
		C289.38,51.23,289.73,51.58,290.17,51.58z"/>
	<path d="M294.17,51.58c0.43,0,0.79-0.35,0.79-0.79c0-0.43-0.35-0.79-0.79-0.79c-0.43,0-0.79,0.35-0.79,0.79
		C293.38,51.23,293.73,51.58,294.17,51.58z"/>
	<path d="M298.17,51.58c0.43,0,0.79-0.35,0.79-0.79c0-0.43-0.35-0.79-0.79-0.79c-0.43,0-0.79,0.35-0.79,0.79
		C297.38,51.23,297.73,51.58,298.17,51.58z"/>
	<path d="M302.17,51.58c0.43,0,0.79-0.35,0.79-0.79c0-0.43-0.35-0.79-0.79-0.79c-0.43,0-0.79,0.35-0.79,0.79
		C301.38,51.23,301.73,51.58,302.17,51.58z"/>
	<path d="M306.17,51.58c0.43,0,0.79-0.35,0.79-0.79c0-0.43-0.35-0.79-0.79-0.79c-0.43,0-0.79,0.35-0.79,0.79
		C305.38,51.23,305.73,51.58,306.17,51.58z"/>
	<path d="M310.17,51.58c0.43,0,0.79-0.35,0.79-0.79c0-0.43-0.35-0.79-0.79-0.79c-0.43,0-0.79,0.35-0.79,0.79
		C309.38,51.23,309.73,51.58,310.17,51.58z"/>
	<path d="M314.17,51.58c0.43,0,0.79-0.35,0.79-0.79c0-0.43-0.35-0.79-0.79-0.79c-0.43,0-0.79,0.35-0.79,0.79
		C313.38,51.23,313.73,51.58,314.17,51.58z"/>
	<path d="M318.17,51.58c0.43,0,0.79-0.35,0.79-0.79c0-0.43-0.35-0.79-0.79-0.79c-0.43,0-0.79,0.35-0.79,0.79
		C317.38,51.23,317.73,51.58,318.17,51.58z"/>
	<path d="M322.17,51.58c0.43,0,0.79-0.35,0.79-0.79c0-0.43-0.35-0.79-0.79-0.79c-0.43,0-0.79,0.35-0.79,0.79
		C321.38,51.23,321.73,51.58,322.17,51.58z"/>
	<path d="M326.17,51.58c0.43,0,0.79-0.35,0.79-0.79c0-0.43-0.35-0.79-0.79-0.79c-0.43,0-0.79,0.35-0.79,0.79
		C325.38,51.23,325.73,51.58,326.17,51.58z"/>
	<path d="M330.17,51.58c0.43,0,0.79-0.35,0.79-0.79c0-0.43-0.35-0.79-0.79-0.79c-0.43,0-0.79,0.35-0.79,0.79
		C329.38,51.23,329.73,51.58,330.17,51.58z"/>
	<path d="M334.17,51.58c0.43,0,0.79-0.35,0.79-0.79c0-0.43-0.35-0.79-0.79-0.79c-0.43,0-0.79,0.35-0.79,0.79
		C333.38,51.23,333.73,51.58,334.17,51.58z"/>
	<path d="M338.17,51.58c0.43,0,0.79-0.35,0.79-0.79c0-0.43-0.35-0.79-0.79-0.79c-0.43,0-0.79,0.35-0.79,0.79
		C337.38,51.23,337.73,51.58,338.17,51.58z"/>
	<path d="M342.17,51.58c0.43,0,0.79-0.35,0.79-0.79c0-0.43-0.35-0.79-0.79-0.79c-0.43,0-0.79,0.35-0.79,0.79
		C341.38,51.23,341.73,51.58,342.17,51.58z"/>
	<path d="M346.17,51.58c0.43,0,0.79-0.35,0.79-0.79c0-0.43-0.35-0.79-0.79-0.79s-0.79,0.35-0.79,0.79
		C345.38,51.23,345.73,51.58,346.17,51.58z"/>
	<path d="M350.17,51.58c0.43,0,0.79-0.35,0.79-0.79c0-0.43-0.35-0.79-0.79-0.79s-0.79,0.35-0.79,0.79
		C349.38,51.23,349.73,51.58,350.17,51.58z"/>
	<path d="M354.17,51.58c0.43,0,0.79-0.35,0.79-0.79c0-0.43-0.35-0.79-0.79-0.79s-0.79,0.35-0.79,0.79
		C353.38,51.23,353.73,51.58,354.17,51.58z"/>
	<path d="M358.17,51.58c0.43,0,0.79-0.35,0.79-0.79c0-0.43-0.35-0.79-0.79-0.79s-0.79,0.35-0.79,0.79
		C357.38,51.23,357.73,51.58,358.17,51.58z"/>
	<circle cx="2.17" cy="54.79" r="0.79"/>
	<circle cx="6.17" cy="54.79" r="0.79"/>
	<circle cx="10.17" cy="54.79" r="0.79"/>
	<circle cx="14.17" cy="54.79" r="0.79"/>
	<circle cx="18.17" cy="54.79" r="0.79"/>
	<circle cx="22.17" cy="54.79" r="0.79"/>
	<circle cx="26.17" cy="54.79" r="0.79"/>
	<circle cx="30.17" cy="54.79" r="0.79"/>
	<circle cx="34.17" cy="54.79" r="0.79"/>
	<circle cx="38.17" cy="54.79" r="0.79"/>
	<circle cx="42.17" cy="54.79" r="0.79"/>
	<circle cx="46.17" cy="54.79" r="0.79"/>
	<circle cx="50.17" cy="54.79" r="0.79"/>
	<path d="M202.17,55.58c0.43,0,0.79-0.35,0.79-0.79c0-0.43-0.35-0.79-0.79-0.79c-0.43,0-0.79,0.35-0.79,0.79
		C201.38,55.23,201.73,55.58,202.17,55.58z"/>
	<path d="M206.17,55.58c0.43,0,0.79-0.35,0.79-0.79c0-0.43-0.35-0.79-0.79-0.79c-0.43,0-0.79,0.35-0.79,0.79
		C205.38,55.23,205.73,55.58,206.17,55.58z"/>
	<path d="M210.17,55.58c0.43,0,0.79-0.35,0.79-0.79c0-0.43-0.35-0.79-0.79-0.79c-0.43,0-0.79,0.35-0.79,0.79
		C209.38,55.23,209.73,55.58,210.17,55.58z"/>
	<path d="M214.17,55.58c0.43,0,0.79-0.35,0.79-0.79c0-0.43-0.35-0.79-0.79-0.79c-0.43,0-0.79,0.35-0.79,0.79
		C213.38,55.23,213.73,55.58,214.17,55.58z"/>
	<path d="M218.17,55.58c0.43,0,0.79-0.35,0.79-0.79c0-0.43-0.35-0.79-0.79-0.79c-0.43,0-0.79,0.35-0.79,0.79
		C217.38,55.23,217.73,55.58,218.17,55.58z"/>
	<path d="M222.17,55.58c0.43,0,0.79-0.35,0.79-0.79c0-0.43-0.35-0.79-0.79-0.79c-0.43,0-0.79,0.35-0.79,0.79
		C221.38,55.23,221.73,55.58,222.17,55.58z"/>
	<path d="M226.17,55.58c0.43,0,0.79-0.35,0.79-0.79c0-0.43-0.35-0.79-0.79-0.79c-0.43,0-0.79,0.35-0.79,0.79
		C225.38,55.23,225.73,55.58,226.17,55.58z"/>
	<path d="M230.17,55.58c0.43,0,0.79-0.35,0.79-0.79c0-0.43-0.35-0.79-0.79-0.79c-0.43,0-0.79,0.35-0.79,0.79
		C229.38,55.23,229.73,55.58,230.17,55.58z"/>
	<path d="M234.17,55.58c0.43,0,0.79-0.35,0.79-0.79c0-0.43-0.35-0.79-0.79-0.79c-0.43,0-0.79,0.35-0.79,0.79
		C233.38,55.23,233.73,55.58,234.17,55.58z"/>
	<path d="M238.17,55.58c0.43,0,0.79-0.35,0.79-0.79c0-0.43-0.35-0.79-0.79-0.79c-0.43,0-0.79,0.35-0.79,0.79
		C237.38,55.23,237.73,55.58,238.17,55.58z"/>
	<path d="M242.17,55.58c0.43,0,0.79-0.35,0.79-0.79c0-0.43-0.35-0.79-0.79-0.79c-0.43,0-0.79,0.35-0.79,0.79
		C241.38,55.23,241.73,55.58,242.17,55.58z"/>
	<path d="M246.17,55.58c0.43,0,0.79-0.35,0.79-0.79c0-0.43-0.35-0.79-0.79-0.79c-0.43,0-0.79,0.35-0.79,0.79
		C245.38,55.23,245.73,55.58,246.17,55.58z"/>
	<path d="M250.17,55.58c0.43,0,0.79-0.35,0.79-0.79c0-0.43-0.35-0.79-0.79-0.79c-0.43,0-0.79,0.35-0.79,0.79
		C249.38,55.23,249.73,55.58,250.17,55.58z"/>
	<path d="M254.17,55.58c0.43,0,0.79-0.35,0.79-0.79c0-0.43-0.35-0.79-0.79-0.79c-0.43,0-0.79,0.35-0.79,0.79
		C253.38,55.23,253.73,55.58,254.17,55.58z"/>
	<path d="M258.17,55.58c0.43,0,0.79-0.35,0.79-0.79c0-0.43-0.35-0.79-0.79-0.79c-0.43,0-0.79,0.35-0.79,0.79
		C257.38,55.23,257.73,55.58,258.17,55.58z"/>
	<path d="M262.17,55.58c0.43,0,0.79-0.35,0.79-0.79c0-0.43-0.35-0.79-0.79-0.79c-0.43,0-0.79,0.35-0.79,0.79
		C261.38,55.23,261.73,55.58,262.17,55.58z"/>
	<path d="M266.17,55.58c0.43,0,0.79-0.35,0.79-0.79c0-0.43-0.35-0.79-0.79-0.79c-0.43,0-0.79,0.35-0.79,0.79
		C265.38,55.23,265.73,55.58,266.17,55.58z"/>
	<path d="M270.17,55.58c0.43,0,0.79-0.35,0.79-0.79c0-0.43-0.35-0.79-0.79-0.79c-0.43,0-0.79,0.35-0.79,0.79
		C269.38,55.23,269.73,55.58,270.17,55.58z"/>
	<path d="M274.17,55.58c0.43,0,0.79-0.35,0.79-0.79c0-0.43-0.35-0.79-0.79-0.79c-0.43,0-0.79,0.35-0.79,0.79
		C273.38,55.23,273.73,55.58,274.17,55.58z"/>
	<path d="M278.17,55.58c0.43,0,0.79-0.35,0.79-0.79c0-0.43-0.35-0.79-0.79-0.79c-0.43,0-0.79,0.35-0.79,0.79
		C277.38,55.23,277.73,55.58,278.17,55.58z"/>
	<path d="M282.17,55.58c0.43,0,0.79-0.35,0.79-0.79c0-0.43-0.35-0.79-0.79-0.79c-0.43,0-0.79,0.35-0.79,0.79
		C281.38,55.23,281.73,55.58,282.17,55.58z"/>
	<path d="M286.17,55.58c0.43,0,0.79-0.35,0.79-0.79c0-0.43-0.35-0.79-0.79-0.79c-0.43,0-0.79,0.35-0.79,0.79
		C285.38,55.23,285.73,55.58,286.17,55.58z"/>
	<path d="M290.17,55.58c0.43,0,0.79-0.35,0.79-0.79c0-0.43-0.35-0.79-0.79-0.79c-0.43,0-0.79,0.35-0.79,0.79
		C289.38,55.23,289.73,55.58,290.17,55.58z"/>
	<path d="M294.17,55.58c0.43,0,0.79-0.35,0.79-0.79c0-0.43-0.35-0.79-0.79-0.79c-0.43,0-0.79,0.35-0.79,0.79
		C293.38,55.23,293.73,55.58,294.17,55.58z"/>
	<path d="M298.17,55.58c0.43,0,0.79-0.35,0.79-0.79c0-0.43-0.35-0.79-0.79-0.79c-0.43,0-0.79,0.35-0.79,0.79
		C297.38,55.23,297.73,55.58,298.17,55.58z"/>
	<path d="M302.17,55.58c0.43,0,0.79-0.35,0.79-0.79c0-0.43-0.35-0.79-0.79-0.79c-0.43,0-0.79,0.35-0.79,0.79
		C301.38,55.23,301.73,55.58,302.17,55.58z"/>
	<path d="M306.17,55.58c0.43,0,0.79-0.35,0.79-0.79c0-0.43-0.35-0.79-0.79-0.79c-0.43,0-0.79,0.35-0.79,0.79
		C305.38,55.23,305.73,55.58,306.17,55.58z"/>
	<path d="M310.17,55.58c0.43,0,0.79-0.35,0.79-0.79c0-0.43-0.35-0.79-0.79-0.79c-0.43,0-0.79,0.35-0.79,0.79
		C309.38,55.23,309.73,55.58,310.17,55.58z"/>
	<path d="M314.17,55.58c0.43,0,0.79-0.35,0.79-0.79c0-0.43-0.35-0.79-0.79-0.79c-0.43,0-0.79,0.35-0.79,0.79
		C313.38,55.23,313.73,55.58,314.17,55.58z"/>
	<path d="M318.17,55.58c0.43,0,0.79-0.35,0.79-0.79c0-0.43-0.35-0.79-0.79-0.79c-0.43,0-0.79,0.35-0.79,0.79
		C317.38,55.23,317.73,55.58,318.17,55.58z"/>
	<path d="M322.17,55.58c0.43,0,0.79-0.35,0.79-0.79c0-0.43-0.35-0.79-0.79-0.79c-0.43,0-0.79,0.35-0.79,0.79
		C321.38,55.23,321.73,55.58,322.17,55.58z"/>
	<path d="M326.17,55.58c0.43,0,0.79-0.35,0.79-0.79c0-0.43-0.35-0.79-0.79-0.79c-0.43,0-0.79,0.35-0.79,0.79
		C325.38,55.23,325.73,55.58,326.17,55.58z"/>
	<path d="M330.17,55.58c0.43,0,0.79-0.35,0.79-0.79c0-0.43-0.35-0.79-0.79-0.79c-0.43,0-0.79,0.35-0.79,0.79
		C329.38,55.23,329.73,55.58,330.17,55.58z"/>
	<path d="M334.17,55.58c0.43,0,0.79-0.35,0.79-0.79c0-0.43-0.35-0.79-0.79-0.79c-0.43,0-0.79,0.35-0.79,0.79
		C333.38,55.23,333.73,55.58,334.17,55.58z"/>
	<path d="M338.17,55.58c0.43,0,0.79-0.35,0.79-0.79c0-0.43-0.35-0.79-0.79-0.79c-0.43,0-0.79,0.35-0.79,0.79
		C337.38,55.23,337.73,55.58,338.17,55.58z"/>
	<path d="M342.17,55.58c0.43,0,0.79-0.35,0.79-0.79c0-0.43-0.35-0.79-0.79-0.79c-0.43,0-0.79,0.35-0.79,0.79
		C341.38,55.23,341.73,55.58,342.17,55.58z"/>
	<path d="M346.17,55.58c0.43,0,0.79-0.35,0.79-0.79c0-0.43-0.35-0.79-0.79-0.79s-0.79,0.35-0.79,0.79
		C345.38,55.23,345.73,55.58,346.17,55.58z"/>
	<path d="M350.17,55.58c0.43,0,0.79-0.35,0.79-0.79c0-0.43-0.35-0.79-0.79-0.79s-0.79,0.35-0.79,0.79
		C349.38,55.23,349.73,55.58,350.17,55.58z"/>
	<path d="M354.17,55.58c0.43,0,0.79-0.35,0.79-0.79c0-0.43-0.35-0.79-0.79-0.79s-0.79,0.35-0.79,0.79
		C353.38,55.23,353.73,55.58,354.17,55.58z"/>
	<path d="M358.17,55.58c0.43,0,0.79-0.35,0.79-0.79c0-0.43-0.35-0.79-0.79-0.79s-0.79,0.35-0.79,0.79
		C357.38,55.23,357.73,55.58,358.17,55.58z"/>
	<path d="M362.17,55.58c0.43,0,0.79-0.35,0.79-0.79c0-0.43-0.35-0.79-0.79-0.79s-0.79,0.35-0.79,0.79
		C361.38,55.23,361.73,55.58,362.17,55.58z"/>
	<path d="M366.17,55.58c0.43,0,0.79-0.35,0.79-0.79c0-0.43-0.35-0.79-0.79-0.79s-0.79,0.35-0.79,0.79
		C365.38,55.23,365.73,55.58,366.17,55.58z"/>
	<path d="M370.17,55.58c0.43,0,0.79-0.35,0.79-0.79c0-0.43-0.35-0.79-0.79-0.79s-0.79,0.35-0.79,0.79
		C369.38,55.23,369.73,55.58,370.17,55.58z"/>
	<circle cx="2.17" cy="58.79" r="0.79"/>
	<circle cx="6.17" cy="58.79" r="0.79"/>
	<circle cx="10.17" cy="58.79" r="0.79"/>
	<circle cx="14.17" cy="58.79" r="0.79"/>
	<circle cx="18.17" cy="58.79" r="0.79"/>
	<circle cx="22.17" cy="58.79" r="0.79"/>
	<circle cx="26.17" cy="58.79" r="0.79"/>
	<circle cx="30.17" cy="58.79" r="0.79"/>
	<circle cx="34.17" cy="58.79" r="0.79"/>
	<circle cx="38.17" cy="58.79" r="0.79"/>
	<circle cx="42.17" cy="58.79" r="0.79"/>
	<path d="M210.17,59.58c0.43,0,0.79-0.35,0.79-0.79c0-0.43-0.35-0.79-0.79-0.79c-0.43,0-0.79,0.35-0.79,0.79
		C209.38,59.23,209.73,59.58,210.17,59.58z"/>
	<path d="M214.17,59.58c0.43,0,0.79-0.35,0.79-0.79c0-0.43-0.35-0.79-0.79-0.79c-0.43,0-0.79,0.35-0.79,0.79
		C213.38,59.23,213.73,59.58,214.17,59.58z"/>
	<path d="M218.17,59.58c0.43,0,0.79-0.35,0.79-0.79c0-0.43-0.35-0.79-0.79-0.79c-0.43,0-0.79,0.35-0.79,0.79
		C217.38,59.23,217.73,59.58,218.17,59.58z"/>
	<path d="M222.17,59.58c0.43,0,0.79-0.35,0.79-0.79c0-0.43-0.35-0.79-0.79-0.79c-0.43,0-0.79,0.35-0.79,0.79
		C221.38,59.23,221.73,59.58,222.17,59.58z"/>
	<path d="M226.17,59.58c0.43,0,0.79-0.35,0.79-0.79c0-0.43-0.35-0.79-0.79-0.79c-0.43,0-0.79,0.35-0.79,0.79
		C225.38,59.23,225.73,59.58,226.17,59.58z"/>
	<path d="M230.17,59.58c0.43,0,0.79-0.35,0.79-0.79c0-0.43-0.35-0.79-0.79-0.79c-0.43,0-0.79,0.35-0.79,0.79
		C229.38,59.23,229.73,59.58,230.17,59.58z"/>
	<path d="M234.17,59.58c0.43,0,0.79-0.35,0.79-0.79c0-0.43-0.35-0.79-0.79-0.79c-0.43,0-0.79,0.35-0.79,0.79
		C233.38,59.23,233.73,59.58,234.17,59.58z"/>
	<path d="M238.17,59.58c0.43,0,0.79-0.35,0.79-0.79c0-0.43-0.35-0.79-0.79-0.79c-0.43,0-0.79,0.35-0.79,0.79
		C237.38,59.23,237.73,59.58,238.17,59.58z"/>
	<path d="M242.17,59.58c0.43,0,0.79-0.35,0.79-0.79c0-0.43-0.35-0.79-0.79-0.79c-0.43,0-0.79,0.35-0.79,0.79
		C241.38,59.23,241.73,59.58,242.17,59.58z"/>
	<path d="M246.17,59.58c0.43,0,0.79-0.35,0.79-0.79c0-0.43-0.35-0.79-0.79-0.79c-0.43,0-0.79,0.35-0.79,0.79
		C245.38,59.23,245.73,59.58,246.17,59.58z"/>
	<path d="M250.17,59.58c0.43,0,0.79-0.35,0.79-0.79c0-0.43-0.35-0.79-0.79-0.79c-0.43,0-0.79,0.35-0.79,0.79
		C249.38,59.23,249.73,59.58,250.17,59.58z"/>
	<path d="M254.17,59.58c0.43,0,0.79-0.35,0.79-0.79c0-0.43-0.35-0.79-0.79-0.79c-0.43,0-0.79,0.35-0.79,0.79
		C253.38,59.23,253.73,59.58,254.17,59.58z"/>
	<path d="M258.17,59.58c0.43,0,0.79-0.35,0.79-0.79c0-0.43-0.35-0.79-0.79-0.79c-0.43,0-0.79,0.35-0.79,0.79
		C257.38,59.23,257.73,59.58,258.17,59.58z"/>
	<path d="M262.17,59.58c0.43,0,0.79-0.35,0.79-0.79c0-0.43-0.35-0.79-0.79-0.79c-0.43,0-0.79,0.35-0.79,0.79
		C261.38,59.23,261.73,59.58,262.17,59.58z"/>
	<path d="M266.17,59.58c0.43,0,0.79-0.35,0.79-0.79c0-0.43-0.35-0.79-0.79-0.79c-0.43,0-0.79,0.35-0.79,0.79
		C265.38,59.23,265.73,59.58,266.17,59.58z"/>
	<path d="M270.17,59.58c0.43,0,0.79-0.35,0.79-0.79c0-0.43-0.35-0.79-0.79-0.79c-0.43,0-0.79,0.35-0.79,0.79
		C269.38,59.23,269.73,59.58,270.17,59.58z"/>
	<path d="M274.17,59.58c0.43,0,0.79-0.35,0.79-0.79c0-0.43-0.35-0.79-0.79-0.79c-0.43,0-0.79,0.35-0.79,0.79
		C273.38,59.23,273.73,59.58,274.17,59.58z"/>
	<path d="M278.17,59.58c0.43,0,0.79-0.35,0.79-0.79c0-0.43-0.35-0.79-0.79-0.79c-0.43,0-0.79,0.35-0.79,0.79
		C277.38,59.23,277.73,59.58,278.17,59.58z"/>
	<path d="M282.17,59.58c0.43,0,0.79-0.35,0.79-0.79c0-0.43-0.35-0.79-0.79-0.79c-0.43,0-0.79,0.35-0.79,0.79
		C281.38,59.23,281.73,59.58,282.17,59.58z"/>
	<path d="M286.17,59.58c0.43,0,0.79-0.35,0.79-0.79c0-0.43-0.35-0.79-0.79-0.79c-0.43,0-0.79,0.35-0.79,0.79
		C285.38,59.23,285.73,59.58,286.17,59.58z"/>
	<path d="M290.17,59.58c0.43,0,0.79-0.35,0.79-0.79c0-0.43-0.35-0.79-0.79-0.79c-0.43,0-0.79,0.35-0.79,0.79
		C289.38,59.23,289.73,59.58,290.17,59.58z"/>
	<path d="M294.17,59.58c0.43,0,0.79-0.35,0.79-0.79c0-0.43-0.35-0.79-0.79-0.79c-0.43,0-0.79,0.35-0.79,0.79
		C293.38,59.23,293.73,59.58,294.17,59.58z"/>
	<path d="M298.17,59.58c0.43,0,0.79-0.35,0.79-0.79c0-0.43-0.35-0.79-0.79-0.79c-0.43,0-0.79,0.35-0.79,0.79
		C297.38,59.23,297.73,59.58,298.17,59.58z"/>
	<path d="M302.17,59.58c0.43,0,0.79-0.35,0.79-0.79c0-0.43-0.35-0.79-0.79-0.79c-0.43,0-0.79,0.35-0.79,0.79
		C301.38,59.23,301.73,59.58,302.17,59.58z"/>
	<path d="M306.17,59.58c0.43,0,0.79-0.35,0.79-0.79c0-0.43-0.35-0.79-0.79-0.79c-0.43,0-0.79,0.35-0.79,0.79
		C305.38,59.23,305.73,59.58,306.17,59.58z"/>
	<path d="M310.17,59.58c0.43,0,0.79-0.35,0.79-0.79c0-0.43-0.35-0.79-0.79-0.79c-0.43,0-0.79,0.35-0.79,0.79
		C309.38,59.23,309.73,59.58,310.17,59.58z"/>
	<path d="M314.17,59.58c0.43,0,0.79-0.35,0.79-0.79c0-0.43-0.35-0.79-0.79-0.79c-0.43,0-0.79,0.35-0.79,0.79
		C313.38,59.23,313.73,59.58,314.17,59.58z"/>
	<path d="M318.17,59.58c0.43,0,0.79-0.35,0.79-0.79c0-0.43-0.35-0.79-0.79-0.79c-0.43,0-0.79,0.35-0.79,0.79
		C317.38,59.23,317.73,59.58,318.17,59.58z"/>
	<path d="M322.17,59.58c0.43,0,0.79-0.35,0.79-0.79c0-0.43-0.35-0.79-0.79-0.79c-0.43,0-0.79,0.35-0.79,0.79
		C321.38,59.23,321.73,59.58,322.17,59.58z"/>
	<path d="M326.17,59.58c0.43,0,0.79-0.35,0.79-0.79c0-0.43-0.35-0.79-0.79-0.79c-0.43,0-0.79,0.35-0.79,0.79
		C325.38,59.23,325.73,59.58,326.17,59.58z"/>
	<path d="M330.17,59.58c0.43,0,0.79-0.35,0.79-0.79c0-0.43-0.35-0.79-0.79-0.79c-0.43,0-0.79,0.35-0.79,0.79
		C329.38,59.23,329.73,59.58,330.17,59.58z"/>
	<path d="M334.17,59.58c0.43,0,0.79-0.35,0.79-0.79c0-0.43-0.35-0.79-0.79-0.79c-0.43,0-0.79,0.35-0.79,0.79
		C333.38,59.23,333.73,59.58,334.17,59.58z"/>
	<path d="M338.17,59.58c0.43,0,0.79-0.35,0.79-0.79c0-0.43-0.35-0.79-0.79-0.79c-0.43,0-0.79,0.35-0.79,0.79
		C337.38,59.23,337.73,59.58,338.17,59.58z"/>
	<path d="M342.17,59.58c0.43,0,0.79-0.35,0.79-0.79c0-0.43-0.35-0.79-0.79-0.79c-0.43,0-0.79,0.35-0.79,0.79
		C341.38,59.23,341.73,59.58,342.17,59.58z"/>
	<path d="M346.17,59.58c0.43,0,0.79-0.35,0.79-0.79c0-0.43-0.35-0.79-0.79-0.79s-0.79,0.35-0.79,0.79
		C345.38,59.23,345.73,59.58,346.17,59.58z"/>
	<path d="M350.17,59.58c0.43,0,0.79-0.35,0.79-0.79c0-0.43-0.35-0.79-0.79-0.79s-0.79,0.35-0.79,0.79
		C349.38,59.23,349.73,59.58,350.17,59.58z"/>
	<path d="M354.17,59.58c0.43,0,0.79-0.35,0.79-0.79c0-0.43-0.35-0.79-0.79-0.79s-0.79,0.35-0.79,0.79
		C353.38,59.23,353.73,59.58,354.17,59.58z"/>
	<path d="M358.17,59.58c0.43,0,0.79-0.35,0.79-0.79c0-0.43-0.35-0.79-0.79-0.79s-0.79,0.35-0.79,0.79
		C357.38,59.23,357.73,59.58,358.17,59.58z"/>
	<path d="M362.17,59.58c0.43,0,0.79-0.35,0.79-0.79c0-0.43-0.35-0.79-0.79-0.79s-0.79,0.35-0.79,0.79
		C361.38,59.23,361.73,59.58,362.17,59.58z"/>
	<path d="M366.17,59.58c0.43,0,0.79-0.35,0.79-0.79c0-0.43-0.35-0.79-0.79-0.79s-0.79,0.35-0.79,0.79
		C365.38,59.23,365.73,59.58,366.17,59.58z"/>
	<path d="M370.17,59.58c0.43,0,0.79-0.35,0.79-0.79c0-0.43-0.35-0.79-0.79-0.79s-0.79,0.35-0.79,0.79
		C369.38,59.23,369.73,59.58,370.17,59.58z"/>
	<path d="M374.17,59.58c0.43,0,0.79-0.35,0.79-0.79c0-0.43-0.35-0.79-0.79-0.79s-0.79,0.35-0.79,0.79
		C373.38,59.23,373.73,59.58,374.17,59.58z"/>
	<path d="M378.17,59.58c0.43,0,0.79-0.35,0.79-0.79c0-0.43-0.35-0.79-0.79-0.79s-0.79,0.35-0.79,0.79
		C377.38,59.23,377.73,59.58,378.17,59.58z"/>
	<circle cx="2.17" cy="62.79" r="0.79"/>
	<circle cx="6.17" cy="62.79" r="0.79"/>
	<circle cx="10.17" cy="62.79" r="0.79"/>
	<circle cx="14.17" cy="62.79" r="0.79"/>
	<circle cx="18.17" cy="62.79" r="0.79"/>
	<circle cx="22.17" cy="62.79" r="0.79"/>
	<circle cx="26.17" cy="62.79" r="0.79"/>
	<circle cx="30.17" cy="62.79" r="0.79"/>
	<circle cx="34.17" cy="62.79" r="0.79"/>
	<path d="M222.17,63.58c0.43,0,0.79-0.35,0.79-0.79c0-0.43-0.35-0.79-0.79-0.79c-0.43,0-0.79,0.35-0.79,0.79
		C221.38,63.23,221.73,63.58,222.17,63.58z"/>
	<path d="M226.17,63.58c0.43,0,0.79-0.35,0.79-0.79c0-0.43-0.35-0.79-0.79-0.79c-0.43,0-0.79,0.35-0.79,0.79
		C225.38,63.23,225.73,63.58,226.17,63.58z"/>
	<path d="M230.17,63.58c0.43,0,0.79-0.35,0.79-0.79c0-0.43-0.35-0.79-0.79-0.79c-0.43,0-0.79,0.35-0.79,0.79
		C229.38,63.23,229.73,63.58,230.17,63.58z"/>
	<path d="M234.17,63.58c0.43,0,0.79-0.35,0.79-0.79c0-0.43-0.35-0.79-0.79-0.79c-0.43,0-0.79,0.35-0.79,0.79
		C233.38,63.23,233.73,63.58,234.17,63.58z"/>
	<path d="M238.17,63.58c0.43,0,0.79-0.35,0.79-0.79c0-0.43-0.35-0.79-0.79-0.79c-0.43,0-0.79,0.35-0.79,0.79
		C237.38,63.23,237.73,63.58,238.17,63.58z"/>
	<path d="M242.17,63.58c0.43,0,0.79-0.35,0.79-0.79c0-0.43-0.35-0.79-0.79-0.79c-0.43,0-0.79,0.35-0.79,0.79
		C241.38,63.23,241.73,63.58,242.17,63.58z"/>
	<path d="M246.17,63.58c0.43,0,0.79-0.35,0.79-0.79c0-0.43-0.35-0.79-0.79-0.79c-0.43,0-0.79,0.35-0.79,0.79
		C245.38,63.23,245.73,63.58,246.17,63.58z"/>
	<path d="M250.17,63.58c0.43,0,0.79-0.35,0.79-0.79c0-0.43-0.35-0.79-0.79-0.79c-0.43,0-0.79,0.35-0.79,0.79
		C249.38,63.23,249.73,63.58,250.17,63.58z"/>
	<path d="M254.17,63.58c0.43,0,0.79-0.35,0.79-0.79c0-0.43-0.35-0.79-0.79-0.79c-0.43,0-0.79,0.35-0.79,0.79
		C253.38,63.23,253.73,63.58,254.17,63.58z"/>
	<path d="M258.17,63.58c0.43,0,0.79-0.35,0.79-0.79c0-0.43-0.35-0.79-0.79-0.79c-0.43,0-0.79,0.35-0.79,0.79
		C257.38,63.23,257.73,63.58,258.17,63.58z"/>
	<path d="M262.17,63.58c0.43,0,0.79-0.35,0.79-0.79c0-0.43-0.35-0.79-0.79-0.79c-0.43,0-0.79,0.35-0.79,0.79
		C261.38,63.23,261.73,63.58,262.17,63.58z"/>
	<path d="M266.17,63.58c0.43,0,0.79-0.35,0.79-0.79c0-0.43-0.35-0.79-0.79-0.79c-0.43,0-0.79,0.35-0.79,0.79
		C265.38,63.23,265.73,63.58,266.17,63.58z"/>
	<path d="M270.17,63.58c0.43,0,0.79-0.35,0.79-0.79c0-0.43-0.35-0.79-0.79-0.79c-0.43,0-0.79,0.35-0.79,0.79
		C269.38,63.23,269.73,63.58,270.17,63.58z"/>
	<path d="M274.17,63.58c0.43,0,0.79-0.35,0.79-0.79c0-0.43-0.35-0.79-0.79-0.79c-0.43,0-0.79,0.35-0.79,0.79
		C273.38,63.23,273.73,63.58,274.17,63.58z"/>
	<path d="M278.17,63.58c0.43,0,0.79-0.35,0.79-0.79c0-0.43-0.35-0.79-0.79-0.79c-0.43,0-0.79,0.35-0.79,0.79
		C277.38,63.23,277.73,63.58,278.17,63.58z"/>
	<path d="M282.17,63.58c0.43,0,0.79-0.35,0.79-0.79c0-0.43-0.35-0.79-0.79-0.79c-0.43,0-0.79,0.35-0.79,0.79
		C281.38,63.23,281.73,63.58,282.17,63.58z"/>
	<path d="M286.17,63.58c0.43,0,0.79-0.35,0.79-0.79c0-0.43-0.35-0.79-0.79-0.79c-0.43,0-0.79,0.35-0.79,0.79
		C285.38,63.23,285.73,63.58,286.17,63.58z"/>
	<path d="M290.17,63.58c0.43,0,0.79-0.35,0.79-0.79c0-0.43-0.35-0.79-0.79-0.79c-0.43,0-0.79,0.35-0.79,0.79
		C289.38,63.23,289.73,63.58,290.17,63.58z"/>
	<path d="M294.17,63.58c0.43,0,0.79-0.35,0.79-0.79c0-0.43-0.35-0.79-0.79-0.79c-0.43,0-0.79,0.35-0.79,0.79
		C293.38,63.23,293.73,63.58,294.17,63.58z"/>
	<path d="M298.17,63.58c0.43,0,0.79-0.35,0.79-0.79c0-0.43-0.35-0.79-0.79-0.79c-0.43,0-0.79,0.35-0.79,0.79
		C297.38,63.23,297.73,63.58,298.17,63.58z"/>
	<path d="M302.17,63.58c0.43,0,0.79-0.35,0.79-0.79c0-0.43-0.35-0.79-0.79-0.79c-0.43,0-0.79,0.35-0.79,0.79
		C301.38,63.23,301.73,63.58,302.17,63.58z"/>
	<path d="M306.17,63.58c0.43,0,0.79-0.35,0.79-0.79c0-0.43-0.35-0.79-0.79-0.79c-0.43,0-0.79,0.35-0.79,0.79
		C305.38,63.23,305.73,63.58,306.17,63.58z"/>
	<path d="M310.17,63.58c0.43,0,0.79-0.35,0.79-0.79c0-0.43-0.35-0.79-0.79-0.79c-0.43,0-0.79,0.35-0.79,0.79
		C309.38,63.23,309.73,63.58,310.17,63.58z"/>
	<path d="M314.17,63.58c0.43,0,0.79-0.35,0.79-0.79c0-0.43-0.35-0.79-0.79-0.79c-0.43,0-0.79,0.35-0.79,0.79
		C313.38,63.23,313.73,63.58,314.17,63.58z"/>
	<path d="M318.17,63.58c0.43,0,0.79-0.35,0.79-0.79c0-0.43-0.35-0.79-0.79-0.79c-0.43,0-0.79,0.35-0.79,0.79
		C317.38,63.23,317.73,63.58,318.17,63.58z"/>
	<path d="M322.17,63.58c0.43,0,0.79-0.35,0.79-0.79c0-0.43-0.35-0.79-0.79-0.79c-0.43,0-0.79,0.35-0.79,0.79
		C321.38,63.23,321.73,63.58,322.17,63.58z"/>
	<path d="M326.17,63.58c0.43,0,0.79-0.35,0.79-0.79c0-0.43-0.35-0.79-0.79-0.79c-0.43,0-0.79,0.35-0.79,0.79
		C325.38,63.23,325.73,63.58,326.17,63.58z"/>
	<path d="M330.17,63.58c0.43,0,0.79-0.35,0.79-0.79c0-0.43-0.35-0.79-0.79-0.79c-0.43,0-0.79,0.35-0.79,0.79
		C329.38,63.23,329.73,63.58,330.17,63.58z"/>
	<path d="M334.17,63.58c0.43,0,0.79-0.35,0.79-0.79c0-0.43-0.35-0.79-0.79-0.79c-0.43,0-0.79,0.35-0.79,0.79
		C333.38,63.23,333.73,63.58,334.17,63.58z"/>
	<path d="M338.17,63.58c0.43,0,0.79-0.35,0.79-0.79c0-0.43-0.35-0.79-0.79-0.79c-0.43,0-0.79,0.35-0.79,0.79
		C337.38,63.23,337.73,63.58,338.17,63.58z"/>
	<path d="M342.17,63.58c0.43,0,0.79-0.35,0.79-0.79c0-0.43-0.35-0.79-0.79-0.79c-0.43,0-0.79,0.35-0.79,0.79
		C341.38,63.23,341.73,63.58,342.17,63.58z"/>
	<path d="M346.17,63.58c0.43,0,0.79-0.35,0.79-0.79c0-0.43-0.35-0.79-0.79-0.79s-0.79,0.35-0.79,0.79
		C345.38,63.23,345.73,63.58,346.17,63.58z"/>
	<path d="M350.17,63.58c0.43,0,0.79-0.35,0.79-0.79c0-0.43-0.35-0.79-0.79-0.79s-0.79,0.35-0.79,0.79
		C349.38,63.23,349.73,63.58,350.17,63.58z"/>
	<path d="M354.17,63.58c0.43,0,0.79-0.35,0.79-0.79c0-0.43-0.35-0.79-0.79-0.79s-0.79,0.35-0.79,0.79
		C353.38,63.23,353.73,63.58,354.17,63.58z"/>
	<path d="M358.17,63.58c0.43,0,0.79-0.35,0.79-0.79c0-0.43-0.35-0.79-0.79-0.79s-0.79,0.35-0.79,0.79
		C357.38,63.23,357.73,63.58,358.17,63.58z"/>
	<path d="M362.17,63.58c0.43,0,0.79-0.35,0.79-0.79c0-0.43-0.35-0.79-0.79-0.79s-0.79,0.35-0.79,0.79
		C361.38,63.23,361.73,63.58,362.17,63.58z"/>
	<path d="M366.17,63.58c0.43,0,0.79-0.35,0.79-0.79c0-0.43-0.35-0.79-0.79-0.79s-0.79,0.35-0.79,0.79
		C365.38,63.23,365.73,63.58,366.17,63.58z"/>
	<path d="M370.17,63.58c0.43,0,0.79-0.35,0.79-0.79c0-0.43-0.35-0.79-0.79-0.79s-0.79,0.35-0.79,0.79
		C369.38,63.23,369.73,63.58,370.17,63.58z"/>
	<path d="M374.17,63.58c0.43,0,0.79-0.35,0.79-0.79c0-0.43-0.35-0.79-0.79-0.79s-0.79,0.35-0.79,0.79
		C373.38,63.23,373.73,63.58,374.17,63.58z"/>
	<path d="M378.17,63.58c0.43,0,0.79-0.35,0.79-0.79c0-0.43-0.35-0.79-0.79-0.79s-0.79,0.35-0.79,0.79
		C377.38,63.23,377.73,63.58,378.17,63.58z"/>
	<path d="M382.17,63.58c0.43,0,0.79-0.35,0.79-0.79c0-0.43-0.35-0.79-0.79-0.79s-0.79,0.35-0.79,0.79
		C381.38,63.23,381.73,63.58,382.17,63.58z"/>
	<path d="M386.17,63.58c0.43,0,0.79-0.35,0.79-0.79c0-0.43-0.35-0.79-0.79-0.79s-0.79,0.35-0.79,0.79
		C385.38,63.23,385.73,63.58,386.17,63.58z"/>
	<circle cx="2.17" cy="66.79" r="0.79"/>
	<circle cx="6.17" cy="66.79" r="0.79"/>
	<circle cx="10.17" cy="66.79" r="0.79"/>
	<circle cx="14.17" cy="66.79" r="0.79"/>
	<circle cx="18.17" cy="66.79" r="0.79"/>
	<circle cx="22.17" cy="66.79" r="0.79"/>
	<circle cx="26.17" cy="66.79" r="0.79"/>
	<path d="M230.17,67.58c0.43,0,0.79-0.35,0.79-0.79s-0.35-0.79-0.79-0.79c-0.43,0-0.79,0.35-0.79,0.79S229.73,67.58,230.17,67.58z"
		/>
	<path d="M234.17,67.58c0.43,0,0.79-0.35,0.79-0.79s-0.35-0.79-0.79-0.79c-0.43,0-0.79,0.35-0.79,0.79S233.73,67.58,234.17,67.58z"
		/>
	<path d="M238.17,67.58c0.43,0,0.79-0.35,0.79-0.79s-0.35-0.79-0.79-0.79c-0.43,0-0.79,0.35-0.79,0.79S237.73,67.58,238.17,67.58z"
		/>
	<path d="M242.17,67.58c0.43,0,0.79-0.35,0.79-0.79s-0.35-0.79-0.79-0.79c-0.43,0-0.79,0.35-0.79,0.79S241.73,67.58,242.17,67.58z"
		/>
	<path d="M246.17,67.58c0.43,0,0.79-0.35,0.79-0.79s-0.35-0.79-0.79-0.79c-0.43,0-0.79,0.35-0.79,0.79S245.73,67.58,246.17,67.58z"
		/>
	<path d="M250.17,67.58c0.43,0,0.79-0.35,0.79-0.79s-0.35-0.79-0.79-0.79c-0.43,0-0.79,0.35-0.79,0.79S249.73,67.58,250.17,67.58z"
		/>
	<path d="M254.17,67.58c0.43,0,0.79-0.35,0.79-0.79s-0.35-0.79-0.79-0.79c-0.43,0-0.79,0.35-0.79,0.79S253.73,67.58,254.17,67.58z"
		/>
	<path d="M258.17,67.58c0.43,0,0.79-0.35,0.79-0.79s-0.35-0.79-0.79-0.79c-0.43,0-0.79,0.35-0.79,0.79S257.73,67.58,258.17,67.58z"
		/>
	<path d="M262.17,67.58c0.43,0,0.79-0.35,0.79-0.79s-0.35-0.79-0.79-0.79c-0.43,0-0.79,0.35-0.79,0.79S261.73,67.58,262.17,67.58z"
		/>
	<path d="M266.17,67.58c0.43,0,0.79-0.35,0.79-0.79s-0.35-0.79-0.79-0.79c-0.43,0-0.79,0.35-0.79,0.79S265.73,67.58,266.17,67.58z"
		/>
	<path d="M270.17,67.58c0.43,0,0.79-0.35,0.79-0.79s-0.35-0.79-0.79-0.79c-0.43,0-0.79,0.35-0.79,0.79S269.73,67.58,270.17,67.58z"
		/>
	<path d="M274.17,67.58c0.43,0,0.79-0.35,0.79-0.79s-0.35-0.79-0.79-0.79c-0.43,0-0.79,0.35-0.79,0.79S273.73,67.58,274.17,67.58z"
		/>
	<path d="M278.17,67.58c0.43,0,0.79-0.35,0.79-0.79s-0.35-0.79-0.79-0.79c-0.43,0-0.79,0.35-0.79,0.79S277.73,67.58,278.17,67.58z"
		/>
	<path d="M282.17,67.58c0.43,0,0.79-0.35,0.79-0.79s-0.35-0.79-0.79-0.79c-0.43,0-0.79,0.35-0.79,0.79S281.73,67.58,282.17,67.58z"
		/>
	<path d="M286.17,67.58c0.43,0,0.79-0.35,0.79-0.79s-0.35-0.79-0.79-0.79c-0.43,0-0.79,0.35-0.79,0.79S285.73,67.58,286.17,67.58z"
		/>
	<path d="M290.17,67.58c0.43,0,0.79-0.35,0.79-0.79s-0.35-0.79-0.79-0.79c-0.43,0-0.79,0.35-0.79,0.79S289.73,67.58,290.17,67.58z"
		/>
	<path d="M294.17,67.58c0.43,0,0.79-0.35,0.79-0.79s-0.35-0.79-0.79-0.79c-0.43,0-0.79,0.35-0.79,0.79S293.73,67.58,294.17,67.58z"
		/>
	<path d="M298.17,67.58c0.43,0,0.79-0.35,0.79-0.79s-0.35-0.79-0.79-0.79c-0.43,0-0.79,0.35-0.79,0.79S297.73,67.58,298.17,67.58z"
		/>
	<path d="M302.17,67.58c0.43,0,0.79-0.35,0.79-0.79s-0.35-0.79-0.79-0.79c-0.43,0-0.79,0.35-0.79,0.79S301.73,67.58,302.17,67.58z"
		/>
	<path d="M306.17,67.58c0.43,0,0.79-0.35,0.79-0.79s-0.35-0.79-0.79-0.79c-0.43,0-0.79,0.35-0.79,0.79S305.73,67.58,306.17,67.58z"
		/>
	<path d="M310.17,67.58c0.43,0,0.79-0.35,0.79-0.79s-0.35-0.79-0.79-0.79c-0.43,0-0.79,0.35-0.79,0.79S309.73,67.58,310.17,67.58z"
		/>
	<path d="M314.17,67.58c0.43,0,0.79-0.35,0.79-0.79s-0.35-0.79-0.79-0.79c-0.43,0-0.79,0.35-0.79,0.79S313.73,67.58,314.17,67.58z"
		/>
	<path d="M318.17,67.58c0.43,0,0.79-0.35,0.79-0.79s-0.35-0.79-0.79-0.79c-0.43,0-0.79,0.35-0.79,0.79S317.73,67.58,318.17,67.58z"
		/>
	<path d="M322.17,67.58c0.43,0,0.79-0.35,0.79-0.79s-0.35-0.79-0.79-0.79c-0.43,0-0.79,0.35-0.79,0.79S321.73,67.58,322.17,67.58z"
		/>
	<path d="M326.17,67.58c0.43,0,0.79-0.35,0.79-0.79s-0.35-0.79-0.79-0.79c-0.43,0-0.79,0.35-0.79,0.79S325.73,67.58,326.17,67.58z"
		/>
	<path d="M330.17,67.58c0.43,0,0.79-0.35,0.79-0.79s-0.35-0.79-0.79-0.79c-0.43,0-0.79,0.35-0.79,0.79S329.73,67.58,330.17,67.58z"
		/>
	<path d="M334.17,67.58c0.43,0,0.79-0.35,0.79-0.79s-0.35-0.79-0.79-0.79c-0.43,0-0.79,0.35-0.79,0.79S333.73,67.58,334.17,67.58z"
		/>
	<path d="M338.17,67.58c0.43,0,0.79-0.35,0.79-0.79s-0.35-0.79-0.79-0.79c-0.43,0-0.79,0.35-0.79,0.79S337.73,67.58,338.17,67.58z"
		/>
	<path d="M342.17,67.58c0.43,0,0.79-0.35,0.79-0.79s-0.35-0.79-0.79-0.79c-0.43,0-0.79,0.35-0.79,0.79S341.73,67.58,342.17,67.58z"
		/>
	<path d="M346.17,67.58c0.43,0,0.79-0.35,0.79-0.79s-0.35-0.79-0.79-0.79s-0.79,0.35-0.79,0.79S345.73,67.58,346.17,67.58z"/>
	<path d="M350.17,67.58c0.43,0,0.79-0.35,0.79-0.79s-0.35-0.79-0.79-0.79s-0.79,0.35-0.79,0.79S349.73,67.58,350.17,67.58z"/>
	<path d="M354.17,67.58c0.43,0,0.79-0.35,0.79-0.79s-0.35-0.79-0.79-0.79s-0.79,0.35-0.79,0.79S353.73,67.58,354.17,67.58z"/>
	<path d="M358.17,67.58c0.43,0,0.79-0.35,0.79-0.79s-0.35-0.79-0.79-0.79s-0.79,0.35-0.79,0.79S357.73,67.58,358.17,67.58z"/>
	<path d="M362.17,67.58c0.43,0,0.79-0.35,0.79-0.79s-0.35-0.79-0.79-0.79s-0.79,0.35-0.79,0.79S361.73,67.58,362.17,67.58z"/>
	<path d="M366.17,67.58c0.43,0,0.79-0.35,0.79-0.79s-0.35-0.79-0.79-0.79s-0.79,0.35-0.79,0.79S365.73,67.58,366.17,67.58z"/>
	<path d="M370.17,67.58c0.43,0,0.79-0.35,0.79-0.79s-0.35-0.79-0.79-0.79s-0.79,0.35-0.79,0.79S369.73,67.58,370.17,67.58z"/>
	<path d="M374.17,67.58c0.43,0,0.79-0.35,0.79-0.79s-0.35-0.79-0.79-0.79s-0.79,0.35-0.79,0.79S373.73,67.58,374.17,67.58z"/>
	<path d="M378.17,67.58c0.43,0,0.79-0.35,0.79-0.79s-0.35-0.79-0.79-0.79s-0.79,0.35-0.79,0.79S377.73,67.58,378.17,67.58z"/>
	<path d="M382.17,67.58c0.43,0,0.79-0.35,0.79-0.79s-0.35-0.79-0.79-0.79s-0.79,0.35-0.79,0.79S381.73,67.58,382.17,67.58z"/>
	<path d="M386.17,67.58c0.43,0,0.79-0.35,0.79-0.79s-0.35-0.79-0.79-0.79s-0.79,0.35-0.79,0.79S385.73,67.58,386.17,67.58z"/>
	<path d="M390.17,67.58c0.43,0,0.79-0.35,0.79-0.79s-0.35-0.79-0.79-0.79c-0.43,0-0.79,0.35-0.79,0.79S389.73,67.58,390.17,67.58z"
		/>
	<path d="M394.17,67.58c0.43,0,0.79-0.35,0.79-0.79s-0.35-0.79-0.79-0.79c-0.43,0-0.79,0.35-0.79,0.79S393.73,67.58,394.17,67.58z"
		/>
	<circle cx="2.17" cy="70.79" r="0.79"/>
	<circle cx="6.17" cy="70.79" r="0.79"/>
	<circle cx="10.17" cy="70.79" r="0.79"/>
	<circle cx="14.17" cy="70.79" r="0.79"/>
	<circle cx="18.17" cy="70.79" r="0.79"/>
	<circle cx="22.17" cy="70.79" r="0.79"/>
	<path d="M242.17,71.58c0.43,0,0.79-0.35,0.79-0.79s-0.35-0.79-0.79-0.79c-0.43,0-0.79,0.35-0.79,0.79S241.73,71.58,242.17,71.58z"
		/>
	<path d="M246.17,71.58c0.43,0,0.79-0.35,0.79-0.79s-0.35-0.79-0.79-0.79c-0.43,0-0.79,0.35-0.79,0.79S245.73,71.58,246.17,71.58z"
		/>
	<path d="M250.17,71.58c0.43,0,0.79-0.35,0.79-0.79s-0.35-0.79-0.79-0.79c-0.43,0-0.79,0.35-0.79,0.79S249.73,71.58,250.17,71.58z"
		/>
	<path d="M254.17,71.58c0.43,0,0.79-0.35,0.79-0.79s-0.35-0.79-0.79-0.79c-0.43,0-0.79,0.35-0.79,0.79S253.73,71.58,254.17,71.58z"
		/>
	<path d="M258.17,71.58c0.43,0,0.79-0.35,0.79-0.79s-0.35-0.79-0.79-0.79c-0.43,0-0.79,0.35-0.79,0.79S257.73,71.58,258.17,71.58z"
		/>
	<path d="M262.17,71.58c0.43,0,0.79-0.35,0.79-0.79s-0.35-0.79-0.79-0.79c-0.43,0-0.79,0.35-0.79,0.79S261.73,71.58,262.17,71.58z"
		/>
	<path d="M266.17,71.58c0.43,0,0.79-0.35,0.79-0.79s-0.35-0.79-0.79-0.79c-0.43,0-0.79,0.35-0.79,0.79S265.73,71.58,266.17,71.58z"
		/>
	<path d="M270.17,71.58c0.43,0,0.79-0.35,0.79-0.79s-0.35-0.79-0.79-0.79c-0.43,0-0.79,0.35-0.79,0.79S269.73,71.58,270.17,71.58z"
		/>
	<path d="M274.17,71.58c0.43,0,0.79-0.35,0.79-0.79s-0.35-0.79-0.79-0.79c-0.43,0-0.79,0.35-0.79,0.79S273.73,71.58,274.17,71.58z"
		/>
	<path d="M278.17,71.58c0.43,0,0.79-0.35,0.79-0.79s-0.35-0.79-0.79-0.79c-0.43,0-0.79,0.35-0.79,0.79S277.73,71.58,278.17,71.58z"
		/>
	<path d="M282.17,71.58c0.43,0,0.79-0.35,0.79-0.79s-0.35-0.79-0.79-0.79c-0.43,0-0.79,0.35-0.79,0.79S281.73,71.58,282.17,71.58z"
		/>
	<path d="M286.17,71.58c0.43,0,0.79-0.35,0.79-0.79s-0.35-0.79-0.79-0.79c-0.43,0-0.79,0.35-0.79,0.79S285.73,71.58,286.17,71.58z"
		/>
	<path d="M290.17,71.58c0.43,0,0.79-0.35,0.79-0.79s-0.35-0.79-0.79-0.79c-0.43,0-0.79,0.35-0.79,0.79S289.73,71.58,290.17,71.58z"
		/>
	<path d="M294.17,71.58c0.43,0,0.79-0.35,0.79-0.79s-0.35-0.79-0.79-0.79c-0.43,0-0.79,0.35-0.79,0.79S293.73,71.58,294.17,71.58z"
		/>
	<path d="M298.17,71.58c0.43,0,0.79-0.35,0.79-0.79s-0.35-0.79-0.79-0.79c-0.43,0-0.79,0.35-0.79,0.79S297.73,71.58,298.17,71.58z"
		/>
	<path d="M302.17,71.58c0.43,0,0.79-0.35,0.79-0.79s-0.35-0.79-0.79-0.79c-0.43,0-0.79,0.35-0.79,0.79S301.73,71.58,302.17,71.58z"
		/>
	<path d="M306.17,71.58c0.43,0,0.79-0.35,0.79-0.79s-0.35-0.79-0.79-0.79c-0.43,0-0.79,0.35-0.79,0.79S305.73,71.58,306.17,71.58z"
		/>
	<path d="M310.17,71.58c0.43,0,0.79-0.35,0.79-0.79s-0.35-0.79-0.79-0.79c-0.43,0-0.79,0.35-0.79,0.79S309.73,71.58,310.17,71.58z"
		/>
	<path d="M314.17,71.58c0.43,0,0.79-0.35,0.79-0.79s-0.35-0.79-0.79-0.79c-0.43,0-0.79,0.35-0.79,0.79S313.73,71.58,314.17,71.58z"
		/>
	<path d="M318.17,71.58c0.43,0,0.79-0.35,0.79-0.79s-0.35-0.79-0.79-0.79c-0.43,0-0.79,0.35-0.79,0.79S317.73,71.58,318.17,71.58z"
		/>
	<path d="M322.17,71.58c0.43,0,0.79-0.35,0.79-0.79s-0.35-0.79-0.79-0.79c-0.43,0-0.79,0.35-0.79,0.79S321.73,71.58,322.17,71.58z"
		/>
	<path d="M326.17,71.58c0.43,0,0.79-0.35,0.79-0.79s-0.35-0.79-0.79-0.79c-0.43,0-0.79,0.35-0.79,0.79S325.73,71.58,326.17,71.58z"
		/>
	<path d="M330.17,71.58c0.43,0,0.79-0.35,0.79-0.79s-0.35-0.79-0.79-0.79c-0.43,0-0.79,0.35-0.79,0.79S329.73,71.58,330.17,71.58z"
		/>
	<path d="M334.17,71.58c0.43,0,0.79-0.35,0.79-0.79s-0.35-0.79-0.79-0.79c-0.43,0-0.79,0.35-0.79,0.79S333.73,71.58,334.17,71.58z"
		/>
	<path d="M338.17,71.58c0.43,0,0.79-0.35,0.79-0.79s-0.35-0.79-0.79-0.79c-0.43,0-0.79,0.35-0.79,0.79S337.73,71.58,338.17,71.58z"
		/>
	<path d="M342.17,71.58c0.43,0,0.79-0.35,0.79-0.79s-0.35-0.79-0.79-0.79c-0.43,0-0.79,0.35-0.79,0.79S341.73,71.58,342.17,71.58z"
		/>
	<path d="M346.17,71.58c0.43,0,0.79-0.35,0.79-0.79s-0.35-0.79-0.79-0.79s-0.79,0.35-0.79,0.79S345.73,71.58,346.17,71.58z"/>
	<path d="M350.17,71.58c0.43,0,0.79-0.35,0.79-0.79s-0.35-0.79-0.79-0.79s-0.79,0.35-0.79,0.79S349.73,71.58,350.17,71.58z"/>
	<path d="M354.17,71.58c0.43,0,0.79-0.35,0.79-0.79s-0.35-0.79-0.79-0.79s-0.79,0.35-0.79,0.79S353.73,71.58,354.17,71.58z"/>
	<path d="M358.17,71.58c0.43,0,0.79-0.35,0.79-0.79s-0.35-0.79-0.79-0.79s-0.79,0.35-0.79,0.79S357.73,71.58,358.17,71.58z"/>
	<path d="M362.17,71.58c0.43,0,0.79-0.35,0.79-0.79s-0.35-0.79-0.79-0.79s-0.79,0.35-0.79,0.79S361.73,71.58,362.17,71.58z"/>
	<path d="M366.17,71.58c0.43,0,0.79-0.35,0.79-0.79s-0.35-0.79-0.79-0.79s-0.79,0.35-0.79,0.79S365.73,71.58,366.17,71.58z"/>
	<path d="M370.17,71.58c0.43,0,0.79-0.35,0.79-0.79s-0.35-0.79-0.79-0.79s-0.79,0.35-0.79,0.79S369.73,71.58,370.17,71.58z"/>
	<path d="M374.17,71.58c0.43,0,0.79-0.35,0.79-0.79s-0.35-0.79-0.79-0.79s-0.79,0.35-0.79,0.79S373.73,71.58,374.17,71.58z"/>
	<path d="M378.17,71.58c0.43,0,0.79-0.35,0.79-0.79s-0.35-0.79-0.79-0.79s-0.79,0.35-0.79,0.79S377.73,71.58,378.17,71.58z"/>
	<path d="M382.17,71.58c0.43,0,0.79-0.35,0.79-0.79s-0.35-0.79-0.79-0.79s-0.79,0.35-0.79,0.79S381.73,71.58,382.17,71.58z"/>
	<path d="M386.17,71.58c0.43,0,0.79-0.35,0.79-0.79s-0.35-0.79-0.79-0.79s-0.79,0.35-0.79,0.79S385.73,71.58,386.17,71.58z"/>
	<path d="M390.17,71.58c0.43,0,0.79-0.35,0.79-0.79s-0.35-0.79-0.79-0.79c-0.43,0-0.79,0.35-0.79,0.79S389.73,71.58,390.17,71.58z"
		/>
	<path d="M394.17,71.58c0.43,0,0.79-0.35,0.79-0.79s-0.35-0.79-0.79-0.79c-0.43,0-0.79,0.35-0.79,0.79S393.73,71.58,394.17,71.58z"
		/>
	<path d="M398.17,71.58c0.43,0,0.79-0.35,0.79-0.79s-0.35-0.79-0.79-0.79c-0.43,0-0.79,0.35-0.79,0.79S397.73,71.58,398.17,71.58z"
		/>
	<circle cx="2.17" cy="74.79" r="0.79"/>
	<circle cx="6.17" cy="74.79" r="0.79"/>
	<circle cx="10.17" cy="74.79" r="0.79"/>
	<circle cx="14.17" cy="74.79" r="0.79"/>
	<path d="M258.17,75.58c0.43,0,0.79-0.35,0.79-0.79s-0.35-0.79-0.79-0.79c-0.43,0-0.79,0.35-0.79,0.79S257.73,75.58,258.17,75.58z"
		/>
	<path d="M262.17,75.58c0.43,0,0.79-0.35,0.79-0.79s-0.35-0.79-0.79-0.79c-0.43,0-0.79,0.35-0.79,0.79S261.73,75.58,262.17,75.58z"
		/>
	<path d="M266.17,75.58c0.43,0,0.79-0.35,0.79-0.79s-0.35-0.79-0.79-0.79c-0.43,0-0.79,0.35-0.79,0.79S265.73,75.58,266.17,75.58z"
		/>
	<path d="M270.17,75.58c0.43,0,0.79-0.35,0.79-0.79s-0.35-0.79-0.79-0.79c-0.43,0-0.79,0.35-0.79,0.79S269.73,75.58,270.17,75.58z"
		/>
	<path d="M274.17,75.58c0.43,0,0.79-0.35,0.79-0.79s-0.35-0.79-0.79-0.79c-0.43,0-0.79,0.35-0.79,0.79S273.73,75.58,274.17,75.58z"
		/>
	<path d="M278.17,75.58c0.43,0,0.79-0.35,0.79-0.79s-0.35-0.79-0.79-0.79c-0.43,0-0.79,0.35-0.79,0.79S277.73,75.58,278.17,75.58z"
		/>
	<path d="M282.17,75.58c0.43,0,0.79-0.35,0.79-0.79s-0.35-0.79-0.79-0.79c-0.43,0-0.79,0.35-0.79,0.79S281.73,75.58,282.17,75.58z"
		/>
	<path d="M286.17,75.58c0.43,0,0.79-0.35,0.79-0.79s-0.35-0.79-0.79-0.79c-0.43,0-0.79,0.35-0.79,0.79S285.73,75.58,286.17,75.58z"
		/>
	<path d="M290.17,75.58c0.43,0,0.79-0.35,0.79-0.79s-0.35-0.79-0.79-0.79c-0.43,0-0.79,0.35-0.79,0.79S289.73,75.58,290.17,75.58z"
		/>
	<path d="M294.17,75.58c0.43,0,0.79-0.35,0.79-0.79s-0.35-0.79-0.79-0.79c-0.43,0-0.79,0.35-0.79,0.79S293.73,75.58,294.17,75.58z"
		/>
	<path d="M298.17,75.58c0.43,0,0.79-0.35,0.79-0.79s-0.35-0.79-0.79-0.79c-0.43,0-0.79,0.35-0.79,0.79S297.73,75.58,298.17,75.58z"
		/>
	<path d="M302.17,75.58c0.43,0,0.79-0.35,0.79-0.79s-0.35-0.79-0.79-0.79c-0.43,0-0.79,0.35-0.79,0.79S301.73,75.58,302.17,75.58z"
		/>
	<path d="M306.17,75.58c0.43,0,0.79-0.35,0.79-0.79s-0.35-0.79-0.79-0.79c-0.43,0-0.79,0.35-0.79,0.79S305.73,75.58,306.17,75.58z"
		/>
	<path d="M310.17,75.58c0.43,0,0.79-0.35,0.79-0.79s-0.35-0.79-0.79-0.79c-0.43,0-0.79,0.35-0.79,0.79S309.73,75.58,310.17,75.58z"
		/>
	<path d="M314.17,75.58c0.43,0,0.79-0.35,0.79-0.79s-0.35-0.79-0.79-0.79c-0.43,0-0.79,0.35-0.79,0.79S313.73,75.58,314.17,75.58z"
		/>
	<path d="M318.17,75.58c0.43,0,0.79-0.35,0.79-0.79s-0.35-0.79-0.79-0.79c-0.43,0-0.79,0.35-0.79,0.79S317.73,75.58,318.17,75.58z"
		/>
	<path d="M322.17,75.58c0.43,0,0.79-0.35,0.79-0.79s-0.35-0.79-0.79-0.79c-0.43,0-0.79,0.35-0.79,0.79S321.73,75.58,322.17,75.58z"
		/>
	<path d="M326.17,75.58c0.43,0,0.79-0.35,0.79-0.79s-0.35-0.79-0.79-0.79c-0.43,0-0.79,0.35-0.79,0.79S325.73,75.58,326.17,75.58z"
		/>
	<path d="M358.17,75.58c0.43,0,0.79-0.35,0.79-0.79s-0.35-0.79-0.79-0.79s-0.79,0.35-0.79,0.79S357.73,75.58,358.17,75.58z"/>
	<path d="M362.17,75.58c0.43,0,0.79-0.35,0.79-0.79s-0.35-0.79-0.79-0.79s-0.79,0.35-0.79,0.79S361.73,75.58,362.17,75.58z"/>
	<path d="M366.17,75.58c0.43,0,0.79-0.35,0.79-0.79s-0.35-0.79-0.79-0.79s-0.79,0.35-0.79,0.79S365.73,75.58,366.17,75.58z"/>
	<path d="M370.17,75.58c0.43,0,0.79-0.35,0.79-0.79s-0.35-0.79-0.79-0.79s-0.79,0.35-0.79,0.79S369.73,75.58,370.17,75.58z"/>
	<path d="M374.17,75.58c0.43,0,0.79-0.35,0.79-0.79s-0.35-0.79-0.79-0.79s-0.79,0.35-0.79,0.79S373.73,75.58,374.17,75.58z"/>
	<path d="M378.17,75.58c0.43,0,0.79-0.35,0.79-0.79s-0.35-0.79-0.79-0.79s-0.79,0.35-0.79,0.79S377.73,75.58,378.17,75.58z"/>
	<path d="M382.17,75.58c0.43,0,0.79-0.35,0.79-0.79s-0.35-0.79-0.79-0.79s-0.79,0.35-0.79,0.79S381.73,75.58,382.17,75.58z"/>
	<path d="M386.17,75.58c0.43,0,0.79-0.35,0.79-0.79s-0.35-0.79-0.79-0.79s-0.79,0.35-0.79,0.79S385.73,75.58,386.17,75.58z"/>
	<path d="M390.17,75.58c0.43,0,0.79-0.35,0.79-0.79s-0.35-0.79-0.79-0.79c-0.43,0-0.79,0.35-0.79,0.79S389.73,75.58,390.17,75.58z"
		/>
	<path d="M394.17,75.58c0.43,0,0.79-0.35,0.79-0.79s-0.35-0.79-0.79-0.79c-0.43,0-0.79,0.35-0.79,0.79S393.73,75.58,394.17,75.58z"
		/>
	<path d="M398.17,75.58c0.43,0,0.79-0.35,0.79-0.79s-0.35-0.79-0.79-0.79c-0.43,0-0.79,0.35-0.79,0.79S397.73,75.58,398.17,75.58z"
		/>
	<path d="M402.17,75.58c0.43,0,0.79-0.35,0.79-0.79s-0.35-0.79-0.79-0.79c-0.43,0-0.79,0.35-0.79,0.79S401.73,75.58,402.17,75.58z"
		/>
	<path d="M406.17,75.58c0.43,0,0.79-0.35,0.79-0.79s-0.35-0.79-0.79-0.79c-0.43,0-0.79,0.35-0.79,0.79S405.73,75.58,406.17,75.58z"
		/>
	<circle cx="2.17" cy="78.79" r="0.79"/>
	<circle cx="6.17" cy="78.79" r="0.79"/>
	<circle cx="10.17" cy="78.79" r="0.79"/>
	<path d="M374.17,79.58c0.43,0,0.79-0.35,0.79-0.79s-0.35-0.79-0.79-0.79s-0.79,0.35-0.79,0.79S373.73,79.58,374.17,79.58z"/>
	<path d="M378.17,79.58c0.43,0,0.79-0.35,0.79-0.79s-0.35-0.79-0.79-0.79s-0.79,0.35-0.79,0.79S377.73,79.58,378.17,79.58z"/>
	<path d="M382.17,79.58c0.43,0,0.79-0.35,0.79-0.79s-0.35-0.79-0.79-0.79s-0.79,0.35-0.79,0.79S381.73,79.58,382.17,79.58z"/>
	<path d="M386.17,79.58c0.43,0,0.79-0.35,0.79-0.79s-0.35-0.79-0.79-0.79s-0.79,0.35-0.79,0.79S385.73,79.58,386.17,79.58z"/>
	<path d="M390.17,79.58c0.43,0,0.79-0.35,0.79-0.79s-0.35-0.79-0.79-0.79c-0.43,0-0.79,0.35-0.79,0.79S389.73,79.58,390.17,79.58z"
		/>
	<path d="M394.17,79.58c0.43,0,0.79-0.35,0.79-0.79s-0.35-0.79-0.79-0.79c-0.43,0-0.79,0.35-0.79,0.79S393.73,79.58,394.17,79.58z"
		/>
	<path d="M398.17,79.58c0.43,0,0.79-0.35,0.79-0.79s-0.35-0.79-0.79-0.79c-0.43,0-0.79,0.35-0.79,0.79S397.73,79.58,398.17,79.58z"
		/>
	<path d="M402.17,79.58c0.43,0,0.79-0.35,0.79-0.79s-0.35-0.79-0.79-0.79c-0.43,0-0.79,0.35-0.79,0.79S401.73,79.58,402.17,79.58z"
		/>
	<path d="M406.17,79.58c0.43,0,0.79-0.35,0.79-0.79s-0.35-0.79-0.79-0.79c-0.43,0-0.79,0.35-0.79,0.79S405.73,79.58,406.17,79.58z"
		/>
	<path d="M410.17,79.58c0.43,0,0.79-0.35,0.79-0.79s-0.35-0.79-0.79-0.79c-0.43,0-0.79,0.35-0.79,0.79S409.73,79.58,410.17,79.58z"
		/>
	<circle cx="2.17" cy="82.79" r="0.79"/>
	<circle cx="6.17" cy="82.79" r="0.79"/>
	<path d="M382.17,83.58c0.43,0,0.79-0.35,0.79-0.79s-0.35-0.79-0.79-0.79s-0.79,0.35-0.79,0.79S381.73,83.58,382.17,83.58z"/>
	<path d="M386.17,83.58c0.43,0,0.79-0.35,0.79-0.79s-0.35-0.79-0.79-0.79s-0.79,0.35-0.79,0.79S385.73,83.58,386.17,83.58z"/>
	<path d="M390.17,83.58c0.43,0,0.79-0.35,0.79-0.79s-0.35-0.79-0.79-0.79c-0.43,0-0.79,0.35-0.79,0.79S389.73,83.58,390.17,83.58z"
		/>
	<path d="M394.17,83.58c0.43,0,0.79-0.35,0.79-0.79s-0.35-0.79-0.79-0.79c-0.43,0-0.79,0.35-0.79,0.79S393.73,83.58,394.17,83.58z"
		/>
	<path d="M398.17,83.58c0.43,0,0.79-0.35,0.79-0.79s-0.35-0.79-0.79-0.79c-0.43,0-0.79,0.35-0.79,0.79S397.73,83.58,398.17,83.58z"
		/>
	<path d="M402.17,83.58c0.43,0,0.79-0.35,0.79-0.79s-0.35-0.79-0.79-0.79c-0.43,0-0.79,0.35-0.79,0.79S401.73,83.58,402.17,83.58z"
		/>
	<path d="M406.17,83.58c0.43,0,0.79-0.35,0.79-0.79s-0.35-0.79-0.79-0.79c-0.43,0-0.79,0.35-0.79,0.79S405.73,83.58,406.17,83.58z"
		/>
	<path d="M410.17,83.58c0.43,0,0.79-0.35,0.79-0.79s-0.35-0.79-0.79-0.79c-0.43,0-0.79,0.35-0.79,0.79S409.73,83.58,410.17,83.58z"
		/>
	<path d="M414.17,83.58c0.43,0,0.79-0.35,0.79-0.79s-0.35-0.79-0.79-0.79c-0.43,0-0.79,0.35-0.79,0.79S413.73,83.58,414.17,83.58z"
		/>
	<path d="M390.17,87.58c0.43,0,0.79-0.35,0.79-0.79s-0.35-0.79-0.79-0.79c-0.43,0-0.79,0.35-0.79,0.79S389.73,87.58,390.17,87.58z"
		/>
	<path d="M394.17,87.58c0.43,0,0.79-0.35,0.79-0.79s-0.35-0.79-0.79-0.79c-0.43,0-0.79,0.35-0.79,0.79S393.73,87.58,394.17,87.58z"
		/>
	<path d="M398.17,87.58c0.43,0,0.79-0.35,0.79-0.79s-0.35-0.79-0.79-0.79c-0.43,0-0.79,0.35-0.79,0.79S397.73,87.58,398.17,87.58z"
		/>
	<path d="M402.17,87.58c0.43,0,0.79-0.35,0.79-0.79s-0.35-0.79-0.79-0.79c-0.43,0-0.79,0.35-0.79,0.79S401.73,87.58,402.17,87.58z"
		/>
	<path d="M406.17,87.58c0.43,0,0.79-0.35,0.79-0.79s-0.35-0.79-0.79-0.79c-0.43,0-0.79,0.35-0.79,0.79S405.73,87.58,406.17,87.58z"
		/>
	<path d="M410.17,87.58c0.43,0,0.79-0.35,0.79-0.79s-0.35-0.79-0.79-0.79c-0.43,0-0.79,0.35-0.79,0.79S409.73,87.58,410.17,87.58z"
		/>
	<path d="M414.17,87.58c0.43,0,0.79-0.35,0.79-0.79s-0.35-0.79-0.79-0.79c-0.43,0-0.79,0.35-0.79,0.79S413.73,87.58,414.17,87.58z"
		/>
	<path d="M398.17,91.58c0.43,0,0.79-0.35,0.79-0.79s-0.35-0.79-0.79-0.79c-0.43,0-0.79,0.35-0.79,0.79S397.73,91.58,398.17,91.58z"
		/>
	<path d="M402.17,91.58c0.43,0,0.79-0.35,0.79-0.79s-0.35-0.79-0.79-0.79c-0.43,0-0.79,0.35-0.79,0.79S401.73,91.58,402.17,91.58z"
		/>
	<path d="M406.17,91.58c0.43,0,0.79-0.35,0.79-0.79s-0.35-0.79-0.79-0.79c-0.43,0-0.79,0.35-0.79,0.79S405.73,91.58,406.17,91.58z"
		/>
	<path d="M410.17,91.58c0.43,0,0.79-0.35,0.79-0.79s-0.35-0.79-0.79-0.79c-0.43,0-0.79,0.35-0.79,0.79S409.73,91.58,410.17,91.58z"
		/>
	<path d="M414.17,91.58c0.43,0,0.79-0.35,0.79-0.79s-0.35-0.79-0.79-0.79c-0.43,0-0.79,0.35-0.79,0.79S413.73,91.58,414.17,91.58z"
		/>
	<path d="M402.17,95.58c0.43,0,0.79-0.35,0.79-0.79s-0.35-0.79-0.79-0.79c-0.43,0-0.79,0.35-0.79,0.79S401.73,95.58,402.17,95.58z"
		/>
	<path d="M406.17,95.58c0.43,0,0.79-0.35,0.79-0.79s-0.35-0.79-0.79-0.79c-0.43,0-0.79,0.35-0.79,0.79S405.73,95.58,406.17,95.58z"
		/>
	<path d="M410.17,95.58c0.43,0,0.79-0.35,0.79-0.79s-0.35-0.79-0.79-0.79c-0.43,0-0.79,0.35-0.79,0.79S409.73,95.58,410.17,95.58z"
		/>
	<path d="M414.17,95.58c0.43,0,0.79-0.35,0.79-0.79s-0.35-0.79-0.79-0.79c-0.43,0-0.79,0.35-0.79,0.79S413.73,95.58,414.17,95.58z"
		/>
	<path d="M406.17,99.58c0.43,0,0.79-0.35,0.79-0.79s-0.35-0.79-0.79-0.79c-0.43,0-0.79,0.35-0.79,0.79S405.73,99.58,406.17,99.58z"
		/>
	<path d="M410.17,99.58c0.43,0,0.79-0.35,0.79-0.79s-0.35-0.79-0.79-0.79c-0.43,0-0.79,0.35-0.79,0.79S409.73,99.58,410.17,99.58z"
		/>
	<path d="M414.17,99.58c0.43,0,0.79-0.35,0.79-0.79s-0.35-0.79-0.79-0.79c-0.43,0-0.79,0.35-0.79,0.79S413.73,99.58,414.17,99.58z"
		/>
	<path d="M410.17,103.58c0.43,0,0.79-0.35,0.79-0.79s-0.35-0.79-0.79-0.79c-0.43,0-0.79,0.35-0.79,0.79S409.73,103.58,410.17,103.58
		z"/>
	<path d="M414.17,103.58c0.43,0,0.79-0.35,0.79-0.79s-0.35-0.79-0.79-0.79c-0.43,0-0.79,0.35-0.79,0.79S413.73,103.58,414.17,103.58
		z"/>
</g>
</svg>
